<?xml version="1.0" encoding="UTF-8" standalone="no"?>
<!-- Created with Inkscape (http://www.inkscape.org/) -->

<svg
   width="210mm"
   height="297mm"
   viewBox="0 0 210 297"
   version="1.1"
   id="svg5"
   inkscape:version="1.1.1 (3bf5ae0d25, 2021-09-20)"
   sodipodi:docname="Box Label.svg"
   xmlns:inkscape="http://www.inkscape.org/namespaces/inkscape"
   xmlns:sodipodi="http://sodipodi.sourceforge.net/DTD/sodipodi-0.dtd"
   xmlns="http://www.w3.org/2000/svg"
   xmlns:svg="http://www.w3.org/2000/svg">
  <sodipodi:namedview
     id="namedview7"
     pagecolor="#505050"
     bordercolor="#ffffff"
     borderopacity="1"
     inkscape:pageshadow="0"
     inkscape:pageopacity="0"
     inkscape:pagecheckerboard="1"
     inkscape:document-units="mm"
     showgrid="false"
     inkscape:zoom="0.73406285"
     inkscape:cx="397.10496"
     inkscape:cy="452.27735"
     inkscape:window-width="1920"
     inkscape:window-height="1010"
     inkscape:window-x="-6"
     inkscape:window-y="-6"
     inkscape:window-maximized="1"
     inkscape:current-layer="text1506" />
  <defs
     id="defs2">
    <rect
       x="89.910557"
       y="577.60722"
       width="716.5599"
       height="299.70186"
       id="rect11470" />
    <rect
       x="110.34477"
       y="256.10886"
       width="407.32207"
       height="309.23783"
       id="rect1508" />
  </defs>
  <g
     inkscape:label="Layer 1"
     inkscape:groupmode="layer"
     id="layer1">
    <g
       aria-label="Kea Water 001
022 108 7155"
       transform="matrix(0.5930711,0,0,0.5930711,-36.600081,-90.044143)"
       id="text1506"
       style="font-size:40px;line-height:1.25;white-space:pre;shape-inside:url(#rect1508)">
      <path
         d="m 123.04102,301.10937 h -8.71094 -0.50781 q -0.70313,0 -1.09375,-0.2539 -0.3711,-0.27344 -0.3711,-0.76172 0,-0.80078 0.78125,-1.05469 0.64453,-0.21484 0.74219,-0.2539 0.11719,-0.0586 0.23437,-0.23438 0.23438,-0.3125 0.23438,-0.99609 v -19.55078 q 0,-0.6836 -0.23438,-0.9961 -0.11718,-0.17578 -0.23437,-0.21484 -0.0977,-0.0586 -0.74219,-0.27344 -0.78125,-0.25391 -0.78125,-1.05469 0,-0.48828 0.3711,-0.74218 0.39062,-0.27344 1.09375,-0.27344 h 0.50781 8.71094 0.50781 q 0.70312,0 1.07422,0.27344 0.39062,0.2539 0.39062,0.74218 0,0.80078 -0.78125,1.05469 -0.64453,0.21484 -0.76172,0.27344 -0.0976,0.0391 -0.21484,0.21484 -0.23438,0.3125 -0.23438,0.9961 v 19.55078 q 0,1.09375 0.56641,1.28906 l 0.60547,0.19531 q 0.74219,0.23438 0.74219,1.05469 0,1.01562 -1.38672,1.01562 z m 7.73437,-18.92578 5.89844,15.42969 q 0.23437,0.625 0.48828,0.95703 0.25391,0.3125 0.66406,0.48828 0.41016,0.19532 0.52735,0.29297 0.27343,0.27344 0.27343,0.72266 0,1.03515 -1.46484,1.03515 h -9.82422 q -0.70312,0 -1.09375,-0.29296 -0.37109,-0.29297 -0.37109,-0.83985 0,-0.625 0.72265,-0.97656 0.44922,-0.21484 0.60547,-0.35156 0.15625,-0.15625 0.17578,-0.41016 0,-0.13672 -0.15625,-0.625 l -2.5,-7.46094 q -0.35156,-1.03515 -0.35156,-1.75781 0,-0.68359 0.56641,-1.48437 l 4.66797,-6.58204 q 0.66406,-0.91796 0.66406,-1.91406 0,-0.54687 -0.29297,-1.01562 -0.29297,-0.46875 -0.78125,-0.66407 l -0.70313,-0.29296 q -0.66406,-0.27344 -0.66406,-0.91797 0,-0.52735 0.41016,-0.85938 0.27344,-0.21484 0.89844,-0.21484 h 6.95312 q 0.68359,0 1.05469,0.3125 0.39062,0.29297 0.39062,0.83984 0,0.82031 -0.89843,1.17188 l -1.03516,0.41015 q -0.64453,0.23438 -1.64063,1.05469 -0.74218,0.625 -1.83593,2.08984 z"
         style="font-family:Stencil;-inkscape-font-specification:Stencil"
         id="path9740" />
      <path
         d="m 151.9668,274.44922 v 26.66015 h -8.69141 -0.50781 q -0.70313,0 -1.09375,-0.2539 -0.3711,-0.27344 -0.3711,-0.76172 0,-0.80078 0.78125,-1.05469 0.64454,-0.21484 0.74219,-0.2539 0.11719,-0.0586 0.23438,-0.23438 0.23437,-0.3125 0.23437,-0.99609 v -19.55078 q 0,-0.6836 -0.23437,-0.9961 -0.11719,-0.17578 -0.23438,-0.21484 -0.0976,-0.0586 -0.74219,-0.27344 -0.78125,-0.25391 -0.78125,-1.05469 0,-0.48828 0.3711,-0.74218 0.39062,-0.27344 1.09375,-0.27344 h 0.50781 z m 1.73828,0 h 7.87109 v 6.91406 q 0,0.60547 -0.23437,0.87891 -0.23438,0.27343 -0.74219,0.27343 -0.42969,0 -0.625,-0.17578 -0.19531,-0.17578 -0.37109,-0.72265 -0.74219,-2.26563 -2.1875,-3.45703 -1.42579,-1.19141 -3.71094,-1.42579 z m -0.0977,14.21875 v -2.26563 q 1.13281,-0.54687 1.67969,-1.1914 0.54687,-0.64453 0.80078,-1.71875 0.15625,-0.74219 0.41016,-1.01563 0.2539,-0.29297 0.72265,-0.29297 0.625,0 0.85938,0.48828 0.13672,0.25391 0.13672,1.15235 v 7.4414 q 0,0.91797 -0.21485,1.26954 -0.19531,0.35156 -0.74218,0.35156 -0.44922,0 -0.70313,-0.27344 -0.25391,-0.27344 -0.41016,-0.91797 -0.33203,-1.34765 -0.95703,-2.07031 -0.60547,-0.72266 -1.58203,-0.95703 z m 0.11719,12.4414 V 299 q 1.26953,-0.19531 2.08984,-0.54688 0.83985,-0.35156 1.67969,-1.07421 0.83984,-0.72266 1.32813,-1.48438 0.50781,-0.78125 0.95703,-2.05078 0.21484,-0.625 0.44922,-0.83984 0.23437,-0.23438 0.64453,-0.23438 0.54687,0 0.76172,0.33203 0.21484,0.3125 0.21484,1.11328 v 6.89453 z"
         style="font-family:Stencil;-inkscape-font-specification:Stencil"
         id="path9742" />
      <path
         d="m 172.61133,274.44922 h 7.87109 l 5.42969,22.94922 q 0.15625,0.60547 0.35156,1.07422 0.17578,0.37109 0.78125,0.60546 0.50781,0.21485 0.70313,0.42969 0.19531,0.21485 0.19531,0.58594 0,1.01562 -1.52344,1.01562 h -9.74609 q -0.58594,0 -0.9375,-0.27343 -0.35156,-0.29297 -0.35156,-0.76172 0,-0.39063 0.15625,-0.58594 0.15625,-0.19531 0.70312,-0.48828 0.39063,-0.19531 0.54688,-0.42969 0.15625,-0.23437 0.15625,-0.58594 0,-0.33203 -0.0586,-0.58593 l -0.625,-2.83203 h -5.44922 l 0.52735,-2.32422 h 4.375 l -3.59375,-15.87891 z m -1.34766,4.96094 0.9961,4.04296 -3.45704,12.61719 q -0.15625,0.54688 -0.15625,1.01563 0,1.23047 1.15235,1.75781 l 0.68359,0.3125 q 0.64453,0.29297 0.64453,0.97656 0,0.97656 -1.42578,0.97656 h -4.96094 q -0.72265,0 -1.15234,-0.29296 -0.41016,-0.3125 -0.41016,-0.83985 0,-0.5664 0.85938,-0.9375 0.80078,-0.35156 1.17187,-0.625 0.39063,-0.29297 0.74219,-0.78125 0.54688,-0.80078 0.89844,-2.1289 z"
         style="font-family:Stencil;-inkscape-font-specification:Stencil"
         id="path9744" />
      <path
         d="m 213.1582,291.65625 -2.36328,9.45312 h -4.21875 l -6.28906,-22.94921 q -0.21484,-0.78125 -0.41016,-1.05469 -0.17578,-0.27344 -0.625,-0.44922 -0.78125,-0.3125 -0.78125,-1.03516 0,-0.5664 0.48828,-0.85937 0.48829,-0.3125 1.36719,-0.3125 h 9.14063 q 0.85937,0 1.17187,0.23437 0.41016,0.29297 0.41016,0.80078 0,0.60547 -0.6836,1.01563 -0.5664,0.33203 -0.74218,0.56641 -0.15625,0.21484 -0.15625,0.66406 0,0.21484 0.0586,0.42969 z m 1.85547,-17.20703 h 4.02344 l 4.6875,17.77344 -2.22656,8.88671 h -4.25782 l -4.55078,-17.16796 z m 9.45313,14.64844 -1.01563,-3.96485 1.42578,-5.78125 q 0.17578,-0.68359 0.17578,-1.05469 0,-0.58593 -0.33203,-0.99609 -0.3125,-0.42969 -1.05468,-0.80078 -0.48829,-0.25391 -0.6836,-0.48828 -0.17578,-0.23438 -0.17578,-0.60547 0,-0.50781 0.3125,-0.72266 0.33203,-0.23437 1.03516,-0.23437 h 4.64843 q 0.80079,0 1.11329,0.23437 0.33203,0.21485 0.33203,0.74219 0,0.3125 -0.17578,0.52734 -0.15625,0.19532 -0.54688,0.3711 -0.87891,0.39062 -1.28906,0.82031 -0.89844,0.89844 -1.34766,2.59766 z"
         style="font-family:Stencil;-inkscape-font-specification:Stencil"
         id="path9746" />
      <path
         d="m 240.22852,274.44922 h 7.87109 l 5.42969,22.94922 q 0.15625,0.60547 0.35156,1.07422 0.17578,0.37109 0.78125,0.60546 0.50781,0.21485 0.70312,0.42969 0.19532,0.21485 0.19532,0.58594 0,1.01562 -1.52344,1.01562 h -9.74609 q -0.58594,0 -0.9375,-0.27343 -0.35157,-0.29297 -0.35157,-0.76172 0,-0.39063 0.15625,-0.58594 0.15625,-0.19531 0.70313,-0.48828 0.39062,-0.19531 0.54687,-0.42969 0.15625,-0.23437 0.15625,-0.58594 0,-0.33203 -0.0586,-0.58593 l -0.625,-2.83203 h -5.44922 l 0.52734,-2.32422 h 4.375 l -3.59375,-15.87891 z m -1.34766,4.96094 0.99609,4.04296 -3.45703,12.61719 q -0.15625,0.54688 -0.15625,1.01563 0,1.23047 1.15235,1.75781 l 0.68359,0.3125 q 0.64453,0.29297 0.64453,0.97656 0,0.97656 -1.42578,0.97656 h -4.96094 q -0.72265,0 -1.15234,-0.29296 -0.41016,-0.3125 -0.41016,-0.83985 0,-0.5664 0.85938,-0.9375 0.80078,-0.35156 1.17187,-0.625 0.39063,-0.29297 0.74219,-0.78125 0.54687,-0.80078 0.89844,-2.1289 z"
         style="font-family:Stencil;-inkscape-font-specification:Stencil"
         id="path9748" />
      <path
         d="m 271.75195,274.44922 v 22.94922 q 0,0.76172 0.29297,1.09375 0.15625,0.19531 0.29297,0.2539 0.13672,0.0391 0.89844,0.23438 0.9375,0.21484 0.9375,1.07422 0,0.50781 -0.50781,0.82031 -0.3711,0.23437 -1.25,0.23437 h -0.64454 -8.71093 -0.64453 q -0.85938,0 -1.3086,-0.2539 -0.42969,-0.27344 -0.42969,-0.80078 0,-0.85938 0.9375,-1.07422 0.76172,-0.19531 0.89844,-0.23438 0.13672,-0.0586 0.27344,-0.2539 0.29297,-0.33203 0.29297,-1.09375 v -22.94922 z m 6.75782,0 v 7.98828 q 0,0.56641 -0.33204,0.91797 -0.3125,0.35156 -0.82031,0.35156 -0.48828,0 -0.82031,-0.3125 -0.3125,-0.33203 -0.41016,-0.89844 l -0.19531,-1.1914 q -0.29297,-1.81641 -1.13281,-3.14453 -0.52735,-0.82032 -1.42578,-1.34766 v -2.36328 z m -22.14844,0 h 5.13672 v 2.36328 q -0.91797,0.52734 -1.42578,1.34766 -0.83985,1.32812 -1.13282,3.14453 l -0.19531,1.1914 q -0.0977,0.56641 -0.42969,0.89844 -0.3125,0.3125 -0.80078,0.3125 -0.50781,0 -0.83984,-0.35156 -0.3125,-0.35156 -0.3125,-0.91797 z"
         style="font-family:Stencil;-inkscape-font-specification:Stencil"
         id="path9750" />
      <path
         d="m 291.57617,274.44922 v 26.66015 h -8.6914 -0.50782 q -0.70312,0 -1.09375,-0.2539 -0.37109,-0.27344 -0.37109,-0.76172 0,-0.80078 0.78125,-1.05469 0.64453,-0.21484 0.74219,-0.2539 0.11718,-0.0586 0.23437,-0.23438 0.23438,-0.3125 0.23438,-0.99609 v -19.55078 q 0,-0.6836 -0.23438,-0.9961 -0.11719,-0.17578 -0.23437,-0.21484 -0.0977,-0.0586 -0.74219,-0.27344 -0.78125,-0.25391 -0.78125,-1.05469 0,-0.48828 0.37109,-0.74218 0.39063,-0.27344 1.09375,-0.27344 h 0.50782 z m 1.73828,0 h 7.8711 v 6.91406 q 0,0.60547 -0.23438,0.87891 -0.23437,0.27343 -0.74219,0.27343 -0.42968,0 -0.625,-0.17578 -0.19531,-0.17578 -0.37109,-0.72265 -0.74219,-2.26563 -2.1875,-3.45703 -1.42578,-1.19141 -3.71094,-1.42579 z m -0.0977,14.21875 v -2.26563 q 1.13281,-0.54687 1.67968,-1.1914 0.54688,-0.64453 0.80079,-1.71875 0.15625,-0.74219 0.41015,-1.01563 0.25391,-0.29297 0.72266,-0.29297 0.625,0 0.85937,0.48828 0.13672,0.25391 0.13672,1.15235 v 7.4414 q 0,0.91797 -0.21484,1.26954 -0.19531,0.35156 -0.74219,0.35156 -0.44922,0 -0.70312,-0.27344 -0.25391,-0.27344 -0.41016,-0.91797 -0.33203,-1.34765 -0.95703,-2.07031 -0.60547,-0.72266 -1.58203,-0.95703 z m 0.11718,12.4414 V 299 q 1.26954,-0.19531 2.08985,-0.54688 0.83984,-0.35156 1.67969,-1.07421 0.83984,-0.72266 1.32812,-1.48438 0.50781,-0.78125 0.95703,-2.05078 0.21485,-0.625 0.44922,-0.83984 0.23438,-0.23438 0.64453,-0.23438 0.54688,0 0.76172,0.33203 0.21484,0.3125 0.21484,1.11328 v 6.89453 z"
         style="font-family:Stencil;-inkscape-font-specification:Stencil"
         id="path9752" />
      <path
         d="m 315.05273,274.44922 v 22.94922 q 0,0.76172 0.29297,1.09375 0.15625,0.19531 0.29297,0.2539 0.13672,0.0391 0.89844,0.23438 0.9375,0.21484 0.9375,1.07422 0,0.50781 -0.50781,0.82031 -0.3711,0.23437 -1.23047,0.23437 h -0.66406 -8.71094 -0.50781 q -0.70313,0 -1.09375,-0.2539 -0.3711,-0.27344 -0.3711,-0.76172 0,-0.80078 0.78125,-1.05469 0.64453,-0.21484 0.74219,-0.2539 0.11719,-0.0586 0.23437,-0.23438 0.23438,-0.3125 0.23438,-0.99609 v -19.55078 q 0,-0.6836 -0.23438,-0.9961 -0.11718,-0.17578 -0.23437,-0.21484 -0.0977,-0.0586 -0.74219,-0.27344 -0.78125,-0.25391 -0.78125,-1.05469 0,-0.48828 0.3711,-0.74218 0.39062,-0.27344 1.09375,-0.27344 h 0.50781 z m 5.9961,13.59375 q 1.79687,0.27344 2.7539,0.60547 0.97657,0.33203 1.75782,0.89843 0.82031,0.60547 1.25,1.44532 0.44922,0.83984 0.44922,1.77734 v 4.04297 q 0,0.625 0.41015,0.625 0.15625,0 0.25391,-0.0781 0.11719,-0.0976 0.3125,-0.35156 0.48828,-0.66406 0.99609,-0.66406 0.33203,0 0.66406,0.35156 0.33204,0.35156 0.33204,0.70313 0,0.60547 -0.58594,1.48437 -0.56641,0.85938 -1.42578,1.54297 -0.80078,0.64453 -1.73828,0.91797 -0.9375,0.29297 -2.20704,0.29297 -2.57812,0 -4.02343,-1.46485 -1.44532,-1.48437 -1.44532,-4.12109 v -3.28125 q 0,-1.09375 -0.0195,-1.26953 -0.0977,-0.78125 -0.54687,-1.34766 -0.56641,-0.68359 -1.6211,-0.80078 v -2.08984 q 1.05469,-0.15625 1.50391,-0.54688 0.39063,-0.35156 0.52734,-0.80078 0.15625,-0.44922 0.15625,-1.32812 v -5.17578 q 0,-1.23047 -0.48828,-1.83594 -0.46875,-0.60547 -1.71875,-0.95703 v -2.16797 h 0.50782 q 2.16796,0 3.6914,0.15625 2.26563,0.21484 4.04297,1.48437 2.55859,1.81641 2.55859,5.17578 0,2.75391 -1.71875,4.51172 -0.72265,0.74219 -1.69921,1.21094 -0.95704,0.46875 -2.92969,1.05469 z"
         style="font-family:Stencil;-inkscape-font-specification:Stencil"
         id="path9754" />
      <path
         d="m 351.49805,301.44141 q -2.05078,-0.25391 -3.65235,-1.15235 -1.58203,-0.91797 -2.94922,-2.63672 -1.5039,-1.875 -2.28515,-4.39453 -0.78125,-2.51953 -0.78125,-5.48828 0,-2.94922 0.78125,-5.46875 0.78125,-2.51953 2.28515,-4.39453 1.36719,-1.71875 2.94922,-2.61719 1.60157,-0.91797 3.65235,-1.17187 v 2.03125 q -0.54688,0.17578 -0.76172,0.3125 -0.21485,0.11718 -0.41016,0.37109 -0.5664,0.72266 -0.5664,2.08984 v 17.71485 q 0,1.36719 0.5664,2.08984 0.19531,0.25391 0.41016,0.39063 0.21484,0.11718 0.76172,0.29297 z m 1.5039,0 v -2.03125 q 0.54688,-0.17579 0.76172,-0.29297 0.21485,-0.13672 0.41016,-0.39063 0.5664,-0.72265 0.5664,-2.08984 v -17.71485 q 0,-1.36718 -0.5664,-2.08984 -0.19531,-0.25391 -0.41016,-0.37109 -0.21484,-0.13672 -0.76172,-0.3125 v -2.03125 q 2.05078,0.2539 3.63282,1.17187 1.60156,0.89844 2.96875,2.61719 1.5039,1.875 2.28515,4.39453 0.78125,2.51953 0.78125,5.46875 0,2.96875 -0.78125,5.48828 -0.78125,2.51953 -2.28515,4.39453 -1.36719,1.71875 -2.96875,2.63672 -1.58204,0.89844 -3.63282,1.15235 z"
         style="font-family:Stencil;-inkscape-font-specification:Stencil"
         id="path9756" />
      <path
         d="m 374.4668,301.44141 q -2.05078,-0.25391 -3.65235,-1.15235 -1.58203,-0.91797 -2.94922,-2.63672 -1.5039,-1.875 -2.28515,-4.39453 -0.78125,-2.51953 -0.78125,-5.48828 0,-2.94922 0.78125,-5.46875 0.78125,-2.51953 2.28515,-4.39453 1.36719,-1.71875 2.94922,-2.61719 1.60157,-0.91797 3.65235,-1.17187 v 2.03125 q -0.54688,0.17578 -0.76172,0.3125 -0.21485,0.11718 -0.41016,0.37109 -0.5664,0.72266 -0.5664,2.08984 v 17.71485 q 0,1.36719 0.5664,2.08984 0.19531,0.25391 0.41016,0.39063 0.21484,0.11718 0.76172,0.29297 z m 1.5039,0 v -2.03125 q 0.54688,-0.17579 0.76172,-0.29297 0.21485,-0.13672 0.41016,-0.39063 0.5664,-0.72265 0.5664,-2.08984 v -17.71485 q 0,-1.36718 -0.5664,-2.08984 -0.19531,-0.25391 -0.41016,-0.37109 -0.21484,-0.13672 -0.76172,-0.3125 v -2.03125 q 2.05078,0.2539 3.63282,1.17187 1.60156,0.89844 2.96875,2.61719 1.5039,1.875 2.28515,4.39453 0.78125,2.51953 0.78125,5.46875 0,2.96875 -0.78125,5.48828 -0.78125,2.51953 -2.28515,4.39453 -1.36719,1.71875 -2.96875,2.63672 -1.58204,0.89844 -3.63282,1.15235 z"
         style="font-family:Stencil;-inkscape-font-specification:Stencil"
         id="path9758" />
      <path
         d="m 401.9668,274.44922 v 22.94922 q 0,0.76172 0.29297,1.09375 0.15625,0.19531 0.29296,0.2539 0.13672,0.0391 0.89844,0.23438 0.9375,0.21484 0.9375,1.07422 0,0.50781 -0.50781,0.82031 -0.37109,0.23437 -1.23047,0.23437 h -0.66406 -7.5 -0.64453 q -0.87891,0 -1.23047,-0.23437 -0.50781,-0.3125 -0.50781,-0.82031 0,-0.85938 0.9375,-1.07422 0.76171,-0.19531 0.89843,-0.23438 0.13672,-0.0586 0.27344,-0.2539 0.29297,-0.33203 0.29297,-1.09375 v -18.28125 q 0,-1.01563 -0.21484,-1.48438 -0.19532,-0.46875 -0.64454,-0.52734 l -0.68359,-0.0977 q -0.91797,-0.13672 -0.91797,-0.9375 0,-0.625 0.58594,-0.97656 0.29297,-0.15625 1.21094,-0.21484 z"
         style="font-family:Stencil;-inkscape-font-specification:Stencil"
         id="path9760" />
      <path
         d="m 121.08789,359.94818 q -2.05078,-0.25391 -3.65234,-1.15234 -1.58203,-0.91797 -2.94922,-2.63672 -1.50391,-1.875 -2.28516,-4.39453 -0.78125,-2.51953 -0.78125,-5.48828 0,-2.94922 0.78125,-5.46875 0.78125,-2.51954 2.28516,-4.39454 1.36719,-1.71875 2.94922,-2.61718 1.60156,-0.91797 3.65234,-1.17188 v 2.03125 q -0.54687,0.17578 -0.76172,0.3125 -0.21484,0.11719 -0.41015,0.3711 -0.56641,0.72265 -0.56641,2.08984 v 17.71484 q 0,1.36719 0.56641,2.08985 0.19531,0.2539 0.41015,0.39062 0.21485,0.11719 0.76172,0.29297 z m 1.50391,0 v -2.03125 q 0.54687,-0.17578 0.76172,-0.29297 0.21484,-0.13672 0.41015,-0.39062 0.56641,-0.72266 0.56641,-2.08985 v -17.71484 q 0,-1.36719 -0.56641,-2.08984 -0.19531,-0.25391 -0.41015,-0.3711 -0.21485,-0.13672 -0.76172,-0.3125 v -2.03125 q 2.05078,0.25391 3.63281,1.17188 1.60156,0.89843 2.96875,2.61718 1.50391,1.875 2.28516,4.39454 0.78125,2.51953 0.78125,5.46875 0,2.96875 -0.78125,5.48828 -0.78125,2.51953 -2.28516,4.39453 -1.36719,1.71875 -2.96875,2.63672 -1.58203,0.89843 -3.63281,1.15234 z"
         style="font-family:Stencil;-inkscape-font-specification:Stencil"
         id="path9762" />
      <path
         d="m 141.9082,332.68256 v 2.07031 q -0.54687,0.11719 -0.89843,0.33203 -0.33204,0.21484 -0.3125,0.42969 0.0391,0.27343 0.52734,0.58593 0.87891,0.60547 1.26953,1.3086 0.39063,0.70312 0.39063,1.69922 0,1.48437 -1.13282,2.55859 -1.11328,1.07422 -2.63672,1.07422 -1.66015,0 -2.77343,-1.13281 -1.11328,-1.15235 -1.11328,-2.85157 0,-1.60156 0.95703,-2.98828 0.97656,-1.38672 2.63672,-2.1875 1.05468,-0.50781 3.08593,-0.89843 z m 1.71875,2.07031 v -2.12891 h 0.52735 q 2.03125,0 3.86718,0.6836 1.85547,0.66406 3.08594,1.85546 2.07031,2.01172 2.07031,5.07813 0,2.63672 -1.5625,4.6875 -1.54296,2.03125 -4.39453,3.18359 l -2.55859,1.01563 q -1.11328,0.44922 -3.14453,1.5625 l -0.58594,0.33203 q -0.78125,0 -1.50391,0.21484 -0.72265,0.19532 -2.08984,0.78125 0.70313,-0.9375 1.40625,-1.62109 0.72266,-0.68359 2.14844,-1.79688 1.83594,-1.42578 2.46094,-2.05078 0.64453,-0.64453 1.09375,-1.48437 0.44921,-0.85938 0.64453,-2.01172 0.21484,-1.17188 0.21484,-2.94922 0,-3.125 -0.54687,-4.21875 -0.21485,-0.42969 -0.46875,-0.66406 -0.23438,-0.23438 -0.66407,-0.46875 z m 9.39453,16.1914 q 0.42969,-0.0195 0.70313,0.35157 0.29297,0.37109 0.29297,0.97656 0,1.34766 -0.72266,3.02734 -0.70312,1.66016 -1.69922,2.67578 -0.85937,0.87891 -2.1289,1.42579 -1.26953,0.54687 -2.40235,0.54687 -1.36718,0 -2.89062,-0.44922 l -2.57813,-0.76172 q -2.16797,-0.625 -2.8125,-0.625 -0.85937,0 -1.8164,0.82032 -0.60547,0.50781 -0.91797,0.50781 -0.44922,0 -0.70313,-0.29297 -0.23437,-0.29297 -0.23437,-0.83984 0,-1.05469 0.48828,-2.14844 0.48828,-1.09375 1.32812,-1.91406 1.77735,-1.73829 4.84375,-1.73829 1.42579,0 3.84766,0.44922 3.53516,0.66407 4.60938,0.66407 0.9375,0 1.38671,-0.46875 0.15625,-0.17579 0.23438,-0.39063 0.0977,-0.23437 0.23437,-0.82031 0.21485,-0.95703 0.9375,-0.9961 z"
         style="font-family:Stencil;-inkscape-font-specification:Stencil"
         id="path9764" />
      <path
         d="m 164.89648,332.68256 v 2.07031 q -0.54687,0.11719 -0.89843,0.33203 -0.33203,0.21484 -0.3125,0.42969 0.0391,0.27343 0.52734,0.58593 0.87891,0.60547 1.26953,1.3086 0.39063,0.70312 0.39063,1.69922 0,1.48437 -1.13282,2.55859 -1.11328,1.07422 -2.63671,1.07422 -1.66016,0 -2.77344,-1.13281 -1.11328,-1.15235 -1.11328,-2.85157 0,-1.60156 0.95703,-2.98828 0.97656,-1.38672 2.63672,-2.1875 1.05468,-0.50781 3.08593,-0.89843 z m 1.71875,2.07031 v -2.12891 h 0.52735 q 2.03125,0 3.86719,0.6836 1.85546,0.66406 3.08593,1.85546 2.07032,2.01172 2.07032,5.07813 0,2.63672 -1.5625,4.6875 -1.54297,2.03125 -4.39454,3.18359 l -2.55859,1.01563 q -1.11328,0.44922 -3.14453,1.5625 l -0.58594,0.33203 q -0.78125,0 -1.5039,0.21484 -0.72266,0.19532 -2.08985,0.78125 0.70313,-0.9375 1.40625,-1.62109 0.72266,-0.68359 2.14844,-1.79688 1.83594,-1.42578 2.46094,-2.05078 0.64453,-0.64453 1.09375,-1.48437 0.44922,-0.85938 0.64453,-2.01172 0.21484,-1.17188 0.21484,-2.94922 0,-3.125 -0.54687,-4.21875 -0.21485,-0.42969 -0.46875,-0.66406 -0.23438,-0.23438 -0.66407,-0.46875 z m 9.39454,16.1914 q 0.42968,-0.0195 0.70312,0.35157 0.29297,0.37109 0.29297,0.97656 0,1.34766 -0.72266,3.02734 -0.70312,1.66016 -1.69922,2.67578 -0.85937,0.87891 -2.1289,1.42579 -1.26953,0.54687 -2.40235,0.54687 -1.36718,0 -2.89062,-0.44922 l -2.57813,-0.76172 q -2.16796,-0.625 -2.8125,-0.625 -0.85937,0 -1.8164,0.82032 -0.60547,0.50781 -0.91797,0.50781 -0.44922,0 -0.70313,-0.29297 -0.23437,-0.29297 -0.23437,-0.83984 0,-1.05469 0.48828,-2.14844 0.48828,-1.09375 1.32813,-1.91406 1.77734,-1.73829 4.84375,-1.73829 1.42578,0 3.84765,0.44922 3.53516,0.66407 4.60938,0.66407 0.9375,0 1.38672,-0.46875 0.15625,-0.17579 0.23437,-0.39063 0.0977,-0.23437 0.23438,-0.82031 0.21484,-0.95703 0.9375,-0.9961 z"
         style="font-family:Stencil;-inkscape-font-specification:Stencil"
         id="path9766" />
      <path
         d="m 204.56445,332.95599 v 22.94922 q 0,0.76172 0.29297,1.09375 0.15625,0.19531 0.29297,0.25391 0.13672,0.0391 0.89844,0.23437 0.9375,0.21485 0.9375,1.07422 0,0.50781 -0.50781,0.82031 -0.3711,0.23438 -1.23047,0.23438 h -0.66407 -7.5 -0.64453 q -0.8789,0 -1.23047,-0.23438 -0.50781,-0.3125 -0.50781,-0.82031 0,-0.85937 0.9375,-1.07422 0.76172,-0.19531 0.89844,-0.23437 0.13672,-0.0586 0.27344,-0.25391 0.29297,-0.33203 0.29297,-1.09375 v -18.28125 q 0,-1.01562 -0.21485,-1.48437 -0.19531,-0.46875 -0.64453,-0.52735 l -0.68359,-0.0976 q -0.91797,-0.13672 -0.91797,-0.9375 0,-0.625 0.58594,-0.97657 0.29296,-0.15625 1.21093,-0.21484 z"
         style="font-family:Stencil;-inkscape-font-specification:Stencil"
         id="path9768" />
      <path
         d="m 223.02148,359.94818 q -2.05078,-0.25391 -3.65234,-1.15234 -1.58203,-0.91797 -2.94922,-2.63672 -1.5039,-1.875 -2.28515,-4.39453 -0.78125,-2.51953 -0.78125,-5.48828 0,-2.94922 0.78125,-5.46875 0.78125,-2.51954 2.28515,-4.39454 1.36719,-1.71875 2.94922,-2.61718 1.60156,-0.91797 3.65234,-1.17188 v 2.03125 q -0.54687,0.17578 -0.76171,0.3125 -0.21485,0.11719 -0.41016,0.3711 -0.56641,0.72265 -0.56641,2.08984 v 17.71484 q 0,1.36719 0.56641,2.08985 0.19531,0.2539 0.41016,0.39062 0.21484,0.11719 0.76171,0.29297 z m 1.50391,0 v -2.03125 q 0.54688,-0.17578 0.76172,-0.29297 0.21484,-0.13672 0.41016,-0.39062 0.5664,-0.72266 0.5664,-2.08985 v -17.71484 q 0,-1.36719 -0.5664,-2.08984 -0.19532,-0.25391 -0.41016,-0.3711 -0.21484,-0.13672 -0.76172,-0.3125 v -2.03125 q 2.05078,0.25391 3.63281,1.17188 1.60157,0.89843 2.96875,2.61718 1.50391,1.875 2.28516,4.39454 0.78125,2.51953 0.78125,5.46875 0,2.96875 -0.78125,5.48828 -0.78125,2.51953 -2.28516,4.39453 -1.36718,1.71875 -2.96875,2.63672 -1.58203,0.89843 -3.63281,1.15234 z"
         style="font-family:Stencil;-inkscape-font-specification:Stencil"
         id="path9770" />
      <path
         d="m 246.04883,334.51849 q -0.82031,0.42969 -1.05469,0.91797 -0.23437,0.48828 -0.23437,1.79688 v 5.39062 q 0,0.64453 0.23437,1.23047 0.17578,0.39063 0.39063,0.60547 0.23437,0.21484 0.66406,0.39062 v 2.05079 q -0.70313,0.27343 -0.9961,0.76171 -0.29296,0.48829 -0.29296,1.38672 v 6.67969 q 0,0.78125 0.2539,1.34766 0.15625,0.37109 0.3711,0.54687 0.21484,0.17578 0.64453,0.29297 v 2.03125 l -0.39063,-0.0195 q -1.71875,0 -3.51562,-0.41016 -1.09375,-0.2539 -1.81641,-0.5664 -0.70312,-0.33203 -1.36719,-0.87891 -2.20703,-1.85547 -2.20703,-4.98047 0,-1.73828 0.6836,-3.18359 0.70312,-1.44531 1.99218,-2.40235 0.72266,-0.54687 1.50391,-0.89843 0.80078,-0.35157 2.16797,-0.76172 -1.32813,-0.39063 -2.10938,-0.74219 -0.76172,-0.37109 -1.42578,-0.91797 -2.05078,-1.71875 -2.05078,-4.60937 0,-1.89453 0.9375,-3.4375 0.9375,-1.5625 2.59766,-2.42188 1.85547,-0.95703 5.01953,-1.09375 z m 1.34765,0 v -1.89453 q 3.1836,0.13672 5.03907,1.09375 1.66015,0.85938 2.59765,2.42188 0.9375,1.54297 0.9375,3.4375 0,2.89062 -2.05078,4.60937 -0.66406,0.54688 -1.44531,0.91797 -0.76172,0.35156 -2.08984,0.74219 1.36718,0.41015 2.14843,0.76172 0.80078,0.35156 1.52344,0.89843 1.28906,0.95704 1.97266,2.40235 0.70312,1.44531 0.70312,3.18359 0,3.125 -2.20703,4.98047 -0.66406,0.56641 -1.38672,0.89844 -0.70312,0.3125 -1.79687,0.54687 -1.54297,0.33203 -3.53516,0.41016 l -0.27344,0.0195 v -2.03125 q 0.42969,-0.11719 0.64453,-0.29297 0.21485,-0.17578 0.3711,-0.54687 0.2539,-0.56641 0.2539,-1.34766 v -6.67969 q 0,-0.17578 -0.13671,-0.60547 -0.11719,-0.44921 -0.23438,-0.72265 -0.15625,-0.29297 -0.37109,-0.46875 -0.21485,-0.17578 -0.66407,-0.35156 v -2.05079 q 0.46875,-0.19531 0.6836,-0.39062 0.23437,-0.21484 0.37109,-0.60547 0.0781,-0.19531 0.21485,-0.68359 0.13671,-0.48828 0.13671,-0.54688 v -5.39062 q 0,-0.21485 -0.11718,-0.70313 l -0.21485,-1.07422 q -0.19531,-0.48828 -1.07422,-0.9375 z"
         style="font-family:Stencil;-inkscape-font-specification:Stencil"
         id="path9772" />
      <path
         d="m 270.89258,341.47162 1.23047,-8.32031 h 1.44531 l -0.29297,2.26562 q 1.52344,-1.48437 2.85156,-2.12891 1.32813,-0.66406 2.8711,-0.66406 0.70312,0 1.25,0.0977 0.54687,0.0977 1.58203,0.42969 1.60156,0.48828 2.14844,0.70312 1.17187,0.44922 1.89453,0.48828 0.44922,0.0195 0.89843,-0.48828 l 0.21485,-0.27344 q 0.3125,-0.35156 0.625,-0.35156 0.27344,0 0.48828,0.23438 0.21484,0.21484 0.21484,0.50781 0,0.54687 -0.35156,1.52344 -0.35156,0.95703 -0.83984,1.79687 -0.80078,1.38672 -1.99219,2.03125 -1.17188,0.625 -2.89063,0.625 -0.74218,0 -1.30859,-0.0977 -0.54687,-0.0977 -3.08594,-0.70312 -2.48047,-0.58594 -3.55468,-0.58594 -0.97657,0 -1.44532,0.60547 -0.44922,0.60547 -0.44922,1.875 v 0.42969 z m 14.43359,-0.6836 q -1.26953,2.48047 -1.77734,4.17969 -0.78125,2.59766 -0.78125,4.62891 0,0.80078 0.11719,1.52344 l 0.37109,2.16796 q 0.17578,1.03516 0.17578,2.03125 0,2.22657 -1.36719,3.47657 -1.25,1.15234 -2.89062,1.15234 -1.875,0 -3.08594,-1.46484 -1.19141,-1.46485 -1.19141,-3.73047 0,-2.34375 1.38672,-4.84375 0.42969,-0.80078 1.07422,-1.64063 0.66406,-0.83984 2.16797,-2.53906 1.5625,-1.75781 2.26563,-2.67578 0.72265,-0.91797 1.03515,-1.58203 1.07422,-0.0977 2.5,-0.6836 z"
         style="font-family:Stencil;-inkscape-font-specification:Stencil"
         id="path9774" />
      <path
         d="m 306.47852,332.95599 v 22.94922 q 0,0.76172 0.29296,1.09375 0.15625,0.19531 0.29297,0.25391 0.13672,0.0391 0.89844,0.23437 0.9375,0.21485 0.9375,1.07422 0,0.50781 -0.50781,0.82031 -0.3711,0.23438 -1.23047,0.23438 h -0.66406 -7.5 -0.64453 q -0.87891,0 -1.23047,-0.23438 -0.50782,-0.3125 -0.50782,-0.82031 0,-0.85937 0.9375,-1.07422 0.76172,-0.19531 0.89844,-0.23437 0.13672,-0.0586 0.27344,-0.25391 0.29297,-0.33203 0.29297,-1.09375 v -18.28125 q 0,-1.01562 -0.21485,-1.48437 -0.19531,-0.46875 -0.64453,-0.52735 l -0.68359,-0.0976 q -0.91797,-0.13672 -0.91797,-0.9375 0,-0.625 0.58594,-0.97657 0.29297,-0.15625 1.21094,-0.21484 z"
         style="font-family:Stencil;-inkscape-font-specification:Stencil"
         id="path9776" />
      <path
         d="m 318.1582,339.08881 0.54688,-6.46485 q 0.64453,0.0781 0.76172,0.0977 l 3.94531,0.52734 q 2.08984,0.29297 5,0.29297 1.95312,0 3.16406,-0.19531 1.21094,-0.19531 2.53906,-0.72266 -0.41015,1.34766 -0.89843,2.20703 -0.48828,0.85938 -1.36719,1.73828 -0.9375,0.9375 -2.08984,1.60157 -1.13282,0.66406 -2.26563,0.91797 -1.71875,0.39062 -4.45312,0.39062 -2.48047,0 -4.88282,-0.39062 z m -0.13672,1.48437 1.79688,0.19531 -0.33203,4.0625 q 1.15234,-0.95703 2.05078,-1.44531 0.89844,-0.48828 1.99219,-0.76172 v 2.75391 q -2.08985,0.48828 -3.51563,1.34765 -0.9375,0.58594 -1.36719,0.58594 -0.52734,0 -0.83984,-0.27344 -0.29297,-0.29296 -0.29297,-0.78125 0,-0.23437 0.0195,-0.54687 z m 7.14844,4.80469 v -2.83203 q 2.01172,0 3.37891,0.3125 1.36719,0.3125 2.61719,1.05468 3.92578,2.30469 3.92578,7.14844 0,2.32422 -0.89844,4.17969 -0.89844,1.85547 -2.55859,3.00781 -1.17188,0.78125 -2.71485,1.25 -1.54297,0.44922 -3.08594,0.44922 h -0.60546 v -2.20703 q 0.60546,-0.19531 0.95703,-0.48828 0.37109,-0.3125 0.60547,-0.85938 0.15625,-0.3125 0.2539,-1.01562 0.11719,-0.70313 0.11719,-1.34766 v -5 q 0,-1.71875 -0.41016,-2.46094 -0.41015,-0.76171 -1.58203,-1.1914 z m -1.64062,12.36328 v 2.14844 q -2.05078,-0.13672 -3.8086,-1.05469 -1.66015,-0.85938 -2.55859,-2.08984 -0.87891,-1.25 -0.87891,-2.71485 0,-1.69922 1.07422,-2.83203 1.09375,-1.13281 2.73438,-1.13281 1.40625,0 2.42187,1.01562 1.03516,1.01563 1.03516,2.40235 0,0.78125 -0.39063,1.60156 -0.39062,0.80078 -0.95703,1.23047 -0.44922,0.33203 -0.44922,0.54687 0,0.3125 0.46875,0.54688 0.46875,0.23437 1.3086,0.33203 z"
         style="font-family:Stencil;-inkscape-font-specification:Stencil"
         id="path9778" />
      <path
         d="m 341.16602,339.08881 0.54687,-6.46485 q 0.64453,0.0781 0.76172,0.0977 l 3.94531,0.52734 q 2.08985,0.29297 5,0.29297 1.95313,0 3.16406,-0.19531 1.21094,-0.19531 2.53907,-0.72266 -0.41016,1.34766 -0.89844,2.20703 -0.48828,0.85938 -1.36719,1.73828 -0.9375,0.9375 -2.08984,1.60157 -1.13281,0.66406 -2.26563,0.91797 -1.71875,0.39062 -4.45312,0.39062 -2.48047,0 -4.88281,-0.39062 z m -0.13672,1.48437 1.79687,0.19531 -0.33203,4.0625 q 1.15234,-0.95703 2.05078,-1.44531 0.89844,-0.48828 1.99219,-0.76172 v 2.75391 q -2.08984,0.48828 -3.51563,1.34765 -0.9375,0.58594 -1.36718,0.58594 -0.52735,0 -0.83985,-0.27344 -0.29297,-0.29296 -0.29297,-0.78125 0,-0.23437 0.0195,-0.54687 z m 7.14843,4.80469 v -2.83203 q 2.01172,0 3.37891,0.3125 1.36719,0.3125 2.61719,1.05468 3.92578,2.30469 3.92578,7.14844 0,2.32422 -0.89844,4.17969 -0.89844,1.85547 -2.55859,3.00781 -1.17188,0.78125 -2.71485,1.25 -1.54296,0.44922 -3.08593,0.44922 h -0.60547 v -2.20703 q 0.60547,-0.19531 0.95703,-0.48828 0.37109,-0.3125 0.60547,-0.85938 0.15625,-0.3125 0.2539,-1.01562 0.11719,-0.70313 0.11719,-1.34766 v -5 q 0,-1.71875 -0.41015,-2.46094 -0.41016,-0.76171 -1.58204,-1.1914 z m -1.64062,12.36328 v 2.14844 q -2.05078,-0.13672 -3.80859,-1.05469 -1.66016,-0.85938 -2.5586,-2.08984 -0.8789,-1.25 -0.8789,-2.71485 0,-1.69922 1.07421,-2.83203 1.09375,-1.13281 2.73438,-1.13281 1.40625,0 2.42187,1.01562 1.03516,1.01563 1.03516,2.40235 0,0.78125 -0.39062,1.60156 -0.39063,0.80078 -0.95704,1.23047 -0.44921,0.33203 -0.44921,0.54687 0,0.3125 0.46875,0.54688 0.46875,0.23437 1.30859,0.33203 z"
         style="font-family:Stencil;-inkscape-font-specification:Stencil"
         id="path9780" />
      <g
         aria-label="44B Kelvin Rd,
Remuera,
Auckland
1050"
         transform="matrix(0.61310883,0,0,0.61310883,19.350592,47.538906)"
         id="text11468"
         style="font-family:Stencil;-inkscape-font-specification:Stencil;shape-inside:url(#rect11470)">
        <path
           d="m 100.63281,600.9668 3.06641,-4.23828 q 0.37109,-0.52735 0.66406,-0.64454 0.29297,-0.13671 1.07422,-0.13671 h 1.69922 q 0.70312,0 0.83984,0.2539 0.11719,0.25391 0.11719,0.82031 v 17.48047 h 2.44141 q 0.97656,0 0.97656,0.9375 0,0.9961 -1.09375,0.9961 h -2.32422 v 2.48047 q 0,0.74218 0.29297,1.09375 0.15625,0.17578 0.29297,0.23437 0.13672,0.0391 0.89844,0.23438 0.9375,0.21484 0.9375,1.07421 0,0.50782 -0.50782,0.82032 -0.37109,0.23437 -1.25,0.23437 h -0.64453 -7.5 -0.64453 q -0.878906,0 -1.230469,-0.23437 -0.507812,-0.3125 -0.507812,-0.82032 0,-0.85937 0.9375,-1.07421 0.742187,-0.19532 0.878911,-0.23438 0.15625,-0.0586 0.29296,-0.23437 0.29297,-0.35157 0.29297,-1.09375 z m -1.542966,2.10937 v 2.89063 l -6.132813,8.53515 h 6.132813 v 1.9336 h -6.816407 q -0.839843,0 -1.152343,-0.25391 -0.292969,-0.25391 -0.292969,-0.9375 0,-0.83984 0.664062,-1.75781 l 0.292969,-0.41016 z"
           id="path23502" />
        <path
           d="m 123.5625,600.9668 3.06641,-4.23828 q 0.37109,-0.52735 0.66406,-0.64454 0.29297,-0.13671 1.07422,-0.13671 h 1.69922 q 0.70312,0 0.83984,0.2539 0.11719,0.25391 0.11719,0.82031 v 17.48047 h 2.4414 q 0.97657,0 0.97657,0.9375 0,0.9961 -1.09375,0.9961 h -2.32422 v 2.48047 q 0,0.74218 0.29297,1.09375 0.15625,0.17578 0.29296,0.23437 0.13672,0.0391 0.89844,0.23438 0.9375,0.21484 0.9375,1.07421 0,0.50782 -0.50781,0.82032 -0.37109,0.23437 -1.25,0.23437 h -0.64453 -7.5 -0.64453 q -0.87891,0 -1.23047,-0.23437 -0.50781,-0.3125 -0.50781,-0.82032 0,-0.85937 0.9375,-1.07421 0.74218,-0.19532 0.8789,-0.23438 0.15625,-0.0586 0.29297,-0.23437 0.29297,-0.35157 0.29297,-1.09375 z m -1.54297,2.10937 v 2.89063 l -6.13281,8.53515 h 6.13281 v 1.9336 h -6.8164 q -0.83985,0 -1.15235,-0.25391 -0.29297,-0.25391 -0.29297,-0.9375 0,-0.83984 0.66407,-1.75781 l 0.29296,-0.41016 z"
           id="path23504" />
        <path
           d="m 148.03516,595.94727 v 26.66015 h -8.69141 -0.50781 q -0.70313,0 -1.09375,-0.2539 -0.3711,-0.27344 -0.3711,-0.76172 0,-0.80078 0.78125,-1.05469 0.64453,-0.21484 0.74219,-0.25391 0.11719,-0.0586 0.23438,-0.23437 0.23437,-0.3125 0.23437,-0.9961 v -19.55078 q 0,-0.68359 -0.23437,-0.99609 -0.11719,-0.17578 -0.23438,-0.21484 -0.0977,-0.0586 -0.74219,-0.27344 -0.78125,-0.25391 -0.78125,-1.05469 0,-0.48828 0.3711,-0.74219 0.39062,-0.27343 1.09375,-0.27343 h 0.50781 z m 6.07421,12.85156 q 1.75782,0.35156 2.69532,0.68359 0.95703,0.33203 1.71875,0.83985 1.30859,0.83984 1.99218,2.22656 0.70313,1.36719 0.70313,3.0664 0,3.33985 -2.46094,5.21485 -1.26953,0.97656 -2.8125,1.38672 -1.52344,0.39062 -4.0039,0.39062 h -2.32422 v -2.05078 q 0.78125,-0.0586 1.23047,-0.21484 0.44921,-0.17578 0.80078,-0.56641 0.64453,-0.72266 0.64453,-2.24609 v -4.4336 q 0,-0.97656 -0.17578,-1.52343 -0.15625,-0.54688 -0.60547,-0.9961 -0.33203,-0.35156 -0.72266,-0.50781 -0.39062,-0.15625 -1.11328,-0.25391 v -2.03125 q 0.72266,-0.0586 1.11328,-0.19531 0.41016,-0.13672 0.74219,-0.44922 0.3125,-0.29297 0.52734,-0.76172 0.21485,-0.46875 0.23438,-0.85937 v -1.07422 -3.37891 q 0,-0.52734 -0.17578,-1.09375 -0.17578,-0.58593 -0.42969,-0.91797 -0.37109,-0.44921 -0.83984,-0.66406 -0.44922,-0.21484 -1.23047,-0.29297 v -2.14843 h 2.24609 q 4.45313,0 6.79688,1.83593 1.07421,0.83985 1.64062,2.03125 0.56641,1.19141 0.56641,2.57813 0,1.36719 -0.58594,2.57812 -0.56641,1.21094 -1.60156,2.01172 -0.76172,0.625 -1.75782,1.01563 -0.99609,0.39062 -2.8125,0.80078 z"
           id="path23506" />
        <path
           d="m 185.24219,622.60742 h -8.71094 -0.50781 q -0.70313,0 -1.09375,-0.2539 -0.3711,-0.27344 -0.3711,-0.76172 0,-0.80078 0.78125,-1.05469 0.64453,-0.21484 0.74219,-0.25391 0.11719,-0.0586 0.23438,-0.23437 0.23437,-0.3125 0.23437,-0.9961 v -19.55078 q 0,-0.68359 -0.23437,-0.99609 -0.11719,-0.17578 -0.23438,-0.21484 -0.0977,-0.0586 -0.74219,-0.27344 -0.78125,-0.25391 -0.78125,-1.05469 0,-0.48828 0.3711,-0.74219 0.39062,-0.27343 1.09375,-0.27343 h 0.50781 8.71094 0.50781 q 0.70312,0 1.07422,0.27343 0.39062,0.25391 0.39062,0.74219 0,0.80078 -0.78125,1.05469 -0.64453,0.21484 -0.76172,0.27344 -0.0977,0.0391 -0.21484,0.21484 -0.23437,0.3125 -0.23437,0.99609 v 19.55078 q 0,1.09375 0.5664,1.28907 l 0.60547,0.19531 q 0.74219,0.23437 0.74219,1.05469 0,1.01562 -1.38672,1.01562 z m 7.73437,-18.92578 5.89844,15.42969 q 0.23437,0.625 0.48828,0.95703 0.25391,0.3125 0.66406,0.48828 0.41016,0.19531 0.52735,0.29297 0.27343,0.27344 0.27343,0.72266 0,1.03515 -1.46484,1.03515 h -9.82422 q -0.70312,0 -1.09375,-0.29297 -0.37109,-0.29297 -0.37109,-0.83984 0,-0.625 0.72265,-0.97656 0.44922,-0.21485 0.60547,-0.35157 0.15625,-0.15625 0.17578,-0.41015 0,-0.13672 -0.15625,-0.625 l -2.5,-7.46094 q -0.35156,-1.03516 -0.35156,-1.75781 0,-0.6836 0.56641,-1.48438 l 4.66797,-6.58203 q 0.66406,-0.91797 0.66406,-1.91406 0,-0.54688 -0.29297,-1.01563 -0.29297,-0.46875 -0.78125,-0.66406 l -0.70312,-0.29297 q -0.66407,-0.27343 -0.66407,-0.91797 0,-0.52734 0.41016,-0.85937 0.27344,-0.21484 0.89844,-0.21484 h 6.95312 q 0.6836,0 1.05469,0.3125 0.39062,0.29296 0.39062,0.83984 0,0.82031 -0.89843,1.17187 l -1.03516,0.41016 q -0.64453,0.23438 -1.64062,1.05469 -0.74219,0.625 -1.83594,2.08984 z"
           id="path23508" />
        <path
           d="m 214.16797,595.94727 v 26.66015 h -8.69141 -0.50781 q -0.70313,0 -1.09375,-0.2539 -0.37109,-0.27344 -0.37109,-0.76172 0,-0.80078 0.78125,-1.05469 0.64453,-0.21484 0.74218,-0.25391 0.11719,-0.0586 0.23438,-0.23437 0.23437,-0.3125 0.23437,-0.9961 v -19.55078 q 0,-0.68359 -0.23437,-0.99609 -0.11719,-0.17578 -0.23438,-0.21484 -0.0977,-0.0586 -0.74218,-0.27344 -0.78125,-0.25391 -0.78125,-1.05469 0,-0.48828 0.37109,-0.74219 0.39062,-0.27343 1.09375,-0.27343 h 0.50781 z m 1.73828,0 h 7.87109 v 6.91406 q 0,0.60547 -0.23437,0.8789 -0.23438,0.27344 -0.74219,0.27344 -0.42969,0 -0.625,-0.17578 -0.19531,-0.17578 -0.37109,-0.72266 -0.74219,-2.26562 -2.1875,-3.45703 -1.42578,-1.1914 -3.71094,-1.42578 z m -0.0977,14.21875 v -2.26563 q 1.13282,-0.54687 1.67969,-1.19141 0.54688,-0.64453 0.80078,-1.71875 0.15625,-0.74218 0.41016,-1.01562 0.2539,-0.29297 0.72265,-0.29297 0.625,0 0.85938,0.48828 0.13672,0.25391 0.13672,1.15235 v 7.4414 q 0,0.91797 -0.21485,1.26953 -0.19531,0.35157 -0.74218,0.35157 -0.44922,0 -0.70313,-0.27344 -0.2539,-0.27344 -0.41015,-0.91797 -0.33204,-1.34766 -0.95704,-2.07031 -0.60546,-0.72266 -1.58203,-0.95703 z m 0.11719,12.4414 v -2.10937 q 1.26953,-0.19532 2.08984,-0.54688 0.83985,-0.35156 1.67969,-1.07422 0.83985,-0.72265 1.32813,-1.48437 0.50781,-0.78125 0.95703,-2.05078 0.21484,-0.625 0.44922,-0.83985 0.23437,-0.23437 0.64453,-0.23437 0.54687,0 0.76172,0.33203 0.21484,0.3125 0.21484,1.11328 v 6.89453 z"
           id="path23510" />
        <path
           d="m 237.64453,622.60742 h -8.69141 -0.50781 q -0.70312,0 -1.09375,-0.2539 -0.37109,-0.27344 -0.37109,-0.76172 0,-0.80078 0.78125,-1.05469 0.64453,-0.21484 0.74219,-0.25391 0.11718,-0.0586 0.23437,-0.23437 0.23438,-0.3125 0.23438,-0.9961 v -19.55078 q 0,-0.68359 -0.23438,-0.99609 -0.11719,-0.17578 -0.23437,-0.21484 -0.0977,-0.0586 -0.74219,-0.27344 -0.78125,-0.25391 -0.78125,-1.05469 0,-0.48828 0.37109,-0.74219 0.39063,-0.27343 1.09375,-0.27343 h 0.50781 8.71094 0.66406 q 0.85938,0 1.23047,0.23437 0.50782,0.3125 0.50782,0.82031 0,0.85938 -0.9375,1.07422 -0.76172,0.17578 -0.89844,0.23438 -0.13672,0.0586 -0.29297,0.23437 -0.29297,0.35156 -0.29297,1.09375 z m 1.58203,0 v -2.1875 q 0.95703,-0.17578 1.50391,-0.39062 0.5664,-0.21485 1.07422,-0.625 0.82031,-0.64453 1.5039,-1.77735 0.6836,-1.13281 1.11328,-2.51953 0.3125,-1.07422 0.56641,-1.40625 0.27344,-0.35156 0.78125,-0.35156 0.54688,0 0.80078,0.44922 0.11719,0.21484 0.11719,0.85937 v 7.94922 z"
           id="path23512" />
        <path
           d="m 262.89844,615.77148 -1.85547,6.83594 h -5.13672 l -6.95313,-23.33984 q -0.15625,-0.52735 -0.29296,-0.70313 -0.13672,-0.19531 -0.42969,-0.33203 -0.625,-0.2539 -0.82031,-0.46875 -0.19532,-0.21484 -0.19532,-0.64453 0,-0.58594 0.52735,-0.91797 0.41015,-0.2539 1.34765,-0.2539 h 8.69141 q 0.82031,0 1.11328,0.0391 0.3125,0.0391 0.50781,0.15625 0.19532,0.13672 0.33203,0.39062 0.13672,0.25391 0.13672,0.48828 0,0.72266 -0.68359,1.03516 -0.50781,0.25391 -0.70313,0.52734 -0.17578,0.25391 -0.17578,0.74219 0,0.3125 0.0586,0.54688 z m 0.74218,-2.79296 -1.03515,-3.67188 2.24609,-8.22266 q 0.21485,-0.78125 0.23438,-0.95703 0.0391,-0.42968 -0.19532,-0.95703 -0.3125,-0.68359 -0.97656,-0.89844 l -0.64453,-0.23437 q -0.76172,-0.25391 -0.76172,-0.99609 0,-0.52735 0.42969,-0.80079 0.42969,-0.29296 1.19141,-0.29296 h 4.78515 q 0.89844,0 1.17188,0.17578 0.46875,0.29297 0.46875,0.83984 0,0.37109 -0.15625,0.58594 -0.13672,0.21484 -0.52735,0.39062 l -0.99609,0.46875 q -0.625,0.29297 -1.21094,1.17188 -0.5664,0.85937 -0.8789,1.97265 z"
           id="path23514" />
        <path
           d="m 283.11328,622.60742 h -8.71094 -0.50781 q -0.70312,0 -1.09375,-0.2539 -0.37109,-0.27344 -0.37109,-0.76172 0,-0.80078 0.78125,-1.05469 0.64453,-0.21484 0.74218,-0.25391 0.11719,-0.0586 0.23438,-0.23437 0.23437,-0.3125 0.23437,-0.9961 v -19.55078 q 0,-0.68359 -0.23437,-0.99609 -0.11719,-0.17578 -0.23438,-0.21484 -0.0976,-0.0586 -0.74218,-0.27344 -0.78125,-0.25391 -0.78125,-1.05469 0,-0.48828 0.37109,-0.74219 0.39063,-0.27343 1.09375,-0.27343 h 0.50781 8.71094 0.50781 q 0.70313,0 1.07422,0.27343 0.39063,0.25391 0.39063,0.74219 0,0.80078 -0.78125,1.05469 -0.64453,0.21484 -0.76172,0.27344 -0.0977,0.0391 -0.21485,0.21484 -0.23437,0.3125 -0.23437,0.99609 v 19.55078 q 0,0.6836 0.23437,0.9961 0.11719,0.17578 0.21485,0.23437 0.11719,0.0391 0.76172,0.25391 0.78125,0.25391 0.78125,1.05469 0,0.48828 -0.39063,0.76172 -0.37109,0.2539 -1.07422,0.2539 z"
           id="path23516" />
        <path
           d="m 299.34375,595.94727 10.39062,18.04687 v 8.61328 h -5.33203 l -13.26172,-22.85156 q -0.42968,-0.74219 -0.70312,-1.03516 -0.27344,-0.29297 -0.70313,-0.42968 l -0.74218,-0.27344 q -0.29297,-0.0977 -0.46875,-0.35156 -0.17578,-0.25391 -0.17578,-0.56641 0,-0.33203 0.17578,-0.60547 0.17578,-0.29297 0.46875,-0.41016 0.33203,-0.13671 1.79687,-0.13671 z m -8.18359,6.85546 2.07031,3.4375 v 10.46875 q 0,1.36719 0.44922,2.2461 0.46875,0.8789 1.46484,1.44531 l 0.58594,0.33203 q 0.50781,0.29297 0.50781,0.87891 0,0.44922 -0.37109,0.74219 -0.3125,0.2539 -1.28907,0.2539 h -4.51171 q -1.77735,0 -1.77735,-1.01562 0,-0.35157 0.17578,-0.54688 0.19532,-0.21484 0.82032,-0.5664 1.875,-1.03516 1.875,-3.76954 z m 18.57421,8.06641 -2.07031,-3.49609 v -5.41016 q 0,-1.64062 -0.48828,-2.5 -0.46875,-0.87891 -1.67969,-1.50391 -0.41015,-0.19531 -0.5664,-0.41015 -0.15625,-0.23438 -0.15625,-0.58594 0,-0.52734 0.33203,-0.76172 0.35156,-0.2539 1.11328,-0.2539 h 4.88281 q 0.9961,0 1.3086,0.3125 0.33203,0.3125 0.33203,0.74218 0,0.41016 -0.19532,0.625 -0.17578,0.19532 -0.8789,0.54688 -1.03516,0.52734 -1.5625,1.62109 -0.3711,0.80078 -0.3711,2.16797 z"
           id="path23518" />
        <path
           d="m 335.80859,595.94727 v 22.94921 q 0,0.76172 0.29297,1.09375 0.15625,0.19532 0.29297,0.25391 0.13672,0.0391 0.89844,0.23438 0.9375,0.21484 0.9375,1.07421 0,0.50782 -0.50781,0.82032 -0.3711,0.23437 -1.23047,0.23437 h -0.66407 -8.71093 -0.50782 q -0.70312,0 -1.09375,-0.2539 -0.37109,-0.27344 -0.37109,-0.76172 0,-0.80078 0.78125,-1.05469 0.64453,-0.21484 0.74219,-0.25391 0.11719,-0.0586 0.23437,-0.23437 0.23438,-0.3125 0.23438,-0.9961 v -19.55078 q 0,-0.68359 -0.23438,-0.99609 -0.11718,-0.17578 -0.23437,-0.21484 -0.0977,-0.0586 -0.74219,-0.27344 -0.78125,-0.25391 -0.78125,-1.05469 0,-0.48828 0.37109,-0.74219 0.39063,-0.27343 1.09375,-0.27343 h 0.50782 z m 5.9961,13.59375 q 1.79687,0.27343 2.7539,0.60546 0.97657,0.33204 1.75782,0.89844 0.82031,0.60547 1.25,1.44531 0.44921,0.83985 0.44921,1.77735 v 4.04297 q 0,0.625 0.41016,0.625 0.15625,0 0.25391,-0.0781 0.11718,-0.0977 0.3125,-0.35156 0.48828,-0.66406 0.99609,-0.66406 0.33203,0 0.66406,0.35156 0.33203,0.35156 0.33203,0.70312 0,0.60547 -0.58593,1.48438 -0.56641,0.85937 -1.42578,1.54297 -0.80079,0.64453 -1.73829,0.91797 -0.9375,0.29297 -2.20703,0.29297 -2.57812,0 -4.02343,-1.46485 -1.44532,-1.48437 -1.44532,-4.12109 v -3.28125 q 0,-1.09375 -0.0195,-1.26953 -0.0976,-0.78125 -0.54687,-1.34766 -0.56641,-0.68359 -1.6211,-0.80078 v -2.08984 q 1.05469,-0.15625 1.50391,-0.54688 0.39062,-0.35156 0.52734,-0.80078 0.15625,-0.44922 0.15625,-1.32813 v -5.17578 q 0,-1.23047 -0.48828,-1.83593 -0.46875,-0.60547 -1.71875,-0.95704 v -2.16796 h 0.50781 q 2.16797,0 3.69141,0.15625 2.26563,0.21484 4.04297,1.48437 2.55859,1.81641 2.55859,5.17578 0,2.75391 -1.71875,4.51172 -0.72265,0.74219 -1.69922,1.21094 -0.95703,0.46875 -2.92968,1.05469 z"
           id="path23520" />
        <path
           d="m 363.77734,595.94727 v 26.66015 h -8.6914 -0.50782 q -0.70312,0 -1.09375,-0.2539 -0.37109,-0.27344 -0.37109,-0.76172 0,-0.80078 0.78125,-1.05469 0.64453,-0.21484 0.74219,-0.25391 0.11719,-0.0586 0.23437,-0.23437 0.23438,-0.3125 0.23438,-0.9961 v -19.55078 q 0,-0.68359 -0.23438,-0.99609 -0.11718,-0.17578 -0.23437,-0.21484 -0.0977,-0.0586 -0.74219,-0.27344 -0.78125,-0.25391 -0.78125,-1.05469 0,-0.48828 0.37109,-0.74219 0.39063,-0.27343 1.09375,-0.27343 h 0.50782 z m 3.94532,21.07421 v -15.41015 q 0,-1.42578 -0.41016,-2.26563 -0.25391,-0.54687 -0.625,-0.80078 -0.37109,-0.2539 -1.17188,-0.42969 v -2.16796 q 1.03516,0 1.75782,0.0781 2.48047,0.27344 4.80468,2.10938 2.30469,1.77734 3.41797,4.6289 1.15235,2.89063 1.15235,6.40625 0,3.98438 -1.46485,7.08985 -1.46484,3.08593 -4.19922,4.86328 -1.32812,0.85937 -2.48046,1.17187 -1.13282,0.3125 -2.98829,0.3125 v -2.10937 q 0.82032,-0.21485 1.13282,-0.39063 0.33203,-0.17578 0.5664,-0.54687 0.29297,-0.42969 0.39063,-0.95703 0.11719,-0.54688 0.11719,-1.58204 z"
           id="path23522" />
        <path
           d="m 384.07031,615.5957 q 1.67969,0 2.8711,1.3086 0.5664,0.60547 0.89843,1.48437 0.33203,0.85938 0.33203,1.73828 0,1.85547 -1.21093,3.75 -1.21094,1.91407 -3.24219,3.24219 -1.71875,1.13281 -2.69531,1.13281 -0.39063,0 -0.64453,-0.23437 -0.25391,-0.23438 -0.25391,-0.625 0,-0.58594 0.74219,-0.97656 1.77734,-0.91797 2.59765,-1.81641 0.78125,-0.83984 0.78125,-1.23047 0,-0.37109 -0.58593,-0.44922 l -0.25391,-0.0391 -0.29297,-0.0195 q -1.26953,-0.19531 -2.07031,-1.17188 -0.78125,-0.99609 -0.78125,-2.40234 0,-1.44531 0.97656,-2.5 1.11328,-1.19141 2.83203,-1.19141 z"
           id="path23524" />
        <path
           d="m 102.17578,645.94727 v 22.94921 q 0,0.76172 0.29297,1.09375 0.15625,0.19532 0.29297,0.25391 0.13672,0.0391 0.89844,0.23438 0.9375,0.21484 0.9375,1.07421 0,0.50782 -0.50782,0.82032 -0.37109,0.23437 -1.23046,0.23437 h -0.66407 -8.710935 -0.507813 q -0.703125,0 -1.09375,-0.2539 -0.371093,-0.27344 -0.371093,-0.76172 0,-0.80078 0.78125,-1.05469 0.644531,-0.21484 0.742187,-0.25391 0.117188,-0.0586 0.234375,-0.23437 0.234375,-0.3125 0.234375,-0.9961 v -19.55078 q 0,-0.68359 -0.234375,-0.99609 -0.117187,-0.17578 -0.234375,-0.21484 -0.09766,-0.0586 -0.742187,-0.27344 -0.78125,-0.25391 -0.78125,-1.05469 0,-0.48828 0.371093,-0.74219 0.390625,-0.27343 1.09375,-0.27343 h 0.507813 z m 5.9961,13.59375 q 1.79687,0.27343 2.7539,0.60546 0.97656,0.33204 1.75781,0.89844 0.82032,0.60547 1.25,1.44531 0.44922,0.83985 0.44922,1.77735 v 4.04297 q 0,0.625 0.41016,0.625 0.15625,0 0.25391,-0.0781 0.11718,-0.0977 0.3125,-0.35156 0.48828,-0.66406 0.99609,-0.66406 0.33203,0 0.66406,0.35156 0.33203,0.35156 0.33203,0.70312 0,0.60547 -0.58593,1.48438 -0.56641,0.85937 -1.42579,1.54297 -0.80078,0.64453 -1.73828,0.91797 -0.9375,0.29297 -2.20703,0.29297 -2.57812,0 -4.02344,-1.46485 -1.44531,-1.48437 -1.44531,-4.12109 v -3.28125 q 0,-1.09375 -0.0195,-1.26953 -0.0977,-0.78125 -0.54687,-1.34766 -0.56641,-0.68359 -1.6211,-0.80078 v -2.08984 q 1.05469,-0.15625 1.50391,-0.54688 0.39062,-0.35156 0.52734,-0.80078 0.15625,-0.44922 0.15625,-1.32813 v -5.17578 q 0,-1.23047 -0.48828,-1.83593 -0.46875,-0.60547 -1.71875,-0.95704 v -2.16796 h 0.50781 q 2.16797,0 3.69141,0.15625 2.26562,0.21484 4.04297,1.48437 2.55859,1.81641 2.55859,5.17578 0,2.75391 -1.71875,4.51172 -0.72265,0.74219 -1.69922,1.21094 -0.95703,0.46875 -2.92968,1.05469 z"
           id="path23526" />
        <path
           d="m 130.14453,645.94727 v 26.66015 h -8.6914 -0.50782 q -0.70312,0 -1.09375,-0.2539 -0.37109,-0.27344 -0.37109,-0.76172 0,-0.80078 0.78125,-1.05469 0.64453,-0.21484 0.74219,-0.25391 0.11718,-0.0586 0.23437,-0.23437 0.23438,-0.3125 0.23438,-0.9961 v -19.55078 q 0,-0.68359 -0.23438,-0.99609 -0.11719,-0.17578 -0.23437,-0.21484 -0.0977,-0.0586 -0.74219,-0.27344 -0.78125,-0.25391 -0.78125,-1.05469 0,-0.48828 0.37109,-0.74219 0.39063,-0.27343 1.09375,-0.27343 h 0.50782 z m 1.73828,0 h 7.8711 v 6.91406 q 0,0.60547 -0.23438,0.8789 -0.23437,0.27344 -0.74219,0.27344 -0.42968,0 -0.625,-0.17578 -0.19531,-0.17578 -0.37109,-0.72266 -0.74219,-2.26562 -2.1875,-3.45703 -1.42578,-1.1914 -3.71094,-1.42578 z m -0.0977,14.21875 v -2.26563 q 1.13281,-0.54687 1.67968,-1.19141 0.54688,-0.64453 0.80078,-1.71875 0.15625,-0.74218 0.41016,-1.01562 0.25391,-0.29297 0.72266,-0.29297 0.625,0 0.85937,0.48828 0.13672,0.25391 0.13672,1.15235 v 7.4414 q 0,0.91797 -0.21484,1.26953 -0.19532,0.35157 -0.74219,0.35157 -0.44922,0 -0.70313,-0.27344 -0.2539,-0.27344 -0.41015,-0.91797 -0.33203,-1.34766 -0.95703,-2.07031 -0.60547,-0.72266 -1.58203,-0.95703 z m 0.11718,12.4414 v -2.10937 q 1.26953,-0.19532 2.08985,-0.54688 0.83984,-0.35156 1.67968,-1.07422 0.83985,-0.72265 1.32813,-1.48437 0.50781,-0.78125 0.95703,-2.05078 0.21484,-0.625 0.44922,-0.83985 0.23437,-0.23437 0.64453,-0.23437 0.54688,0 0.76172,0.33203 0.21484,0.3125 0.21484,1.11328 v 6.89453 z"
           id="path23528" />
        <path
           d="m 160.41797,645.94727 h 8.67187 0.52735 q 1.46484,0 1.46484,1.01562 0,0.80078 -0.78125,1.05469 -0.64453,0.21484 -0.76172,0.27344 -0.0977,0.0391 -0.21484,0.21484 -0.23438,0.3125 -0.23438,0.99609 v 19.55078 q 0,0.6836 0.23438,0.9961 0.11719,0.17578 0.21484,0.23437 0.11719,0.0391 0.76172,0.25391 0.78125,0.25391 0.78125,1.05469 0,1.01562 -1.46484,1.01562 h -0.52735 -8.6914 -0.64453 q -0.85938,0 -1.3086,-0.2539 -0.42969,-0.27344 -0.42969,-0.80079 0,-0.85937 0.9375,-1.07421 0.76172,-0.19532 0.89844,-0.23438 0.13672,-0.0586 0.27344,-0.23437 0.29297,-0.35157 0.29297,-1.11329 z m -7.1875,0 3.84765,10.95703 1.69922,-5.91797 v 6.48437 l -4.51172,15.13672 h -1.03515 l -7.57813,-22.48047 q -0.39062,-1.13281 -0.82031,-1.52343 -0.25391,-0.25391 -0.87891,-0.3711 -1.26953,-0.27344 -1.26953,-1.21094 0,-0.50781 0.35157,-0.78125 0.37109,-0.29296 1.05468,-0.29296 z m -7.57813,8.98437 2.07032,5.89844 v 5.8789 q 0,0.89844 0.0586,1.28907 0.0781,0.39062 0.3125,0.85937 0.41016,0.85938 1.13281,1.28906 l 0.72266,0.46875 q 0.74219,0.44922 0.74219,0.9961 0,0.99609 -1.46485,0.99609 h -4.90234 q -1.46485,0 -1.46485,-0.97656 0,-0.3125 0.11719,-0.46875 0.13672,-0.17578 0.50781,-0.39063 2.16797,-1.17187 2.16797,-4.0625 z"
           id="path23530" />
        <path
           d="m 175.94531,664.81445 v -15.3125 q 0,-0.68359 -0.23437,-0.99609 -0.11719,-0.17578 -0.23438,-0.21484 -0.0977,-0.0586 -0.74219,-0.27344 -0.78125,-0.25391 -0.78125,-1.03516 0,-0.50781 0.3711,-0.76172 0.39062,-0.27343 1.09375,-0.27343 h 0.50781 8.71094 0.50781 l 0.70313,0.0781 q 0.33203,0.0977 0.54687,0.35156 0.21484,0.25391 0.21484,0.60547 0,0.78125 -0.78125,1.03516 -0.64453,0.21484 -0.76171,0.27344 -0.0977,0.0391 -0.21485,0.21484 -0.23437,0.3125 -0.23437,0.99609 v 16.38672 q 0,1.66016 0.0781,2.32422 0.0977,0.64453 0.3711,1.17188 0.2539,0.48828 0.5664,0.70312 0.3125,0.21484 1.19141,0.48828 v 2.5586 h -0.42969 q -2.53906,0 -4.21875,-0.44922 -1.97266,-0.52735 -3.45703,-1.5625 -1.48438,-1.03516 -2.10938,-2.32422 -0.66406,-1.36719 -0.66406,-3.98438 z m 12.67578,8.32032 v -2.5586 q 1.95313,-0.2539 3.26172,-1.60156 1.48438,-1.54297 1.48438,-4.43359 v -12.73438 q 0,-2.67578 -2.05078,-3.73047 -0.60547,-0.3125 -0.80079,-0.52734 -0.17578,-0.23438 -0.17578,-0.66406 0,-0.50782 0.3711,-0.72266 0.37109,-0.21484 1.21093,-0.21484 h 4.78516 q 0.60547,0 0.80078,0.0391 0.21485,0.0195 0.41016,0.13672 0.50781,0.29297 0.50781,0.80078 0,0.42969 -0.3125,0.72265 -0.0977,0.0977 -0.83984,0.52735 -0.85938,0.46875 -1.34766,1.44531 -0.48828,0.95703 -0.48828,2.1875 v 12.75391 q 0,3.28125 -1.44531,5.39062 -1.05469,1.5625 -3.02735,2.5 -0.97656,0.46875 -2.34375,0.6836 z"
           id="path23532" />
        <path
           d="m 212.01953,645.94727 v 26.66015 h -8.69141 -0.50781 q -0.70312,0 -1.09375,-0.2539 -0.37109,-0.27344 -0.37109,-0.76172 0,-0.80078 0.78125,-1.05469 0.64453,-0.21484 0.74219,-0.25391 0.11718,-0.0586 0.23437,-0.23437 0.23438,-0.3125 0.23438,-0.9961 v -19.55078 q 0,-0.68359 -0.23438,-0.99609 -0.11719,-0.17578 -0.23437,-0.21484 -0.0977,-0.0586 -0.74219,-0.27344 -0.78125,-0.25391 -0.78125,-1.05469 0,-0.48828 0.37109,-0.74219 0.39063,-0.27343 1.09375,-0.27343 h 0.50781 z m 1.73828,0 h 7.8711 v 6.91406 q 0,0.60547 -0.23438,0.8789 -0.23437,0.27344 -0.74219,0.27344 -0.42968,0 -0.625,-0.17578 -0.19531,-0.17578 -0.37109,-0.72266 -0.74219,-2.26562 -2.1875,-3.45703 -1.42578,-1.1914 -3.71094,-1.42578 z m -0.0977,14.21875 v -2.26563 q 1.13281,-0.54687 1.67968,-1.19141 0.54688,-0.64453 0.80078,-1.71875 0.15625,-0.74218 0.41016,-1.01562 0.25391,-0.29297 0.72266,-0.29297 0.625,0 0.85937,0.48828 0.13672,0.25391 0.13672,1.15235 v 7.4414 q 0,0.91797 -0.21484,1.26953 -0.19532,0.35157 -0.74219,0.35157 -0.44922,0 -0.70313,-0.27344 -0.2539,-0.27344 -0.41015,-0.91797 -0.33203,-1.34766 -0.95703,-2.07031 -0.60547,-0.72266 -1.58203,-0.95703 z m 0.11718,12.4414 v -2.10937 q 1.26953,-0.19532 2.08985,-0.54688 0.83984,-0.35156 1.67968,-1.07422 0.83985,-0.72265 1.32813,-1.48437 0.50781,-0.78125 0.95703,-2.05078 0.21484,-0.625 0.44922,-0.83985 0.23437,-0.23437 0.64453,-0.23437 0.54688,0 0.76172,0.33203 0.21484,0.3125 0.21484,1.11328 v 6.89453 z"
           id="path23534" />
        <path
           d="m 235.49609,645.94727 v 22.94921 q 0,0.76172 0.29297,1.09375 0.15625,0.19532 0.29297,0.25391 0.13672,0.0391 0.89844,0.23438 0.9375,0.21484 0.9375,1.07421 0,0.50782 -0.50781,0.82032 -0.3711,0.23437 -1.23047,0.23437 h -0.66407 -8.71093 -0.50782 q -0.70312,0 -1.09375,-0.2539 -0.37109,-0.27344 -0.37109,-0.76172 0,-0.80078 0.78125,-1.05469 0.64453,-0.21484 0.74219,-0.25391 0.11719,-0.0586 0.23437,-0.23437 0.23438,-0.3125 0.23438,-0.9961 v -19.55078 q 0,-0.68359 -0.23438,-0.99609 -0.11718,-0.17578 -0.23437,-0.21484 -0.0977,-0.0586 -0.74219,-0.27344 -0.78125,-0.25391 -0.78125,-1.05469 0,-0.48828 0.37109,-0.74219 0.39063,-0.27343 1.09375,-0.27343 h 0.50782 z m 5.9961,13.59375 q 1.79687,0.27343 2.7539,0.60546 0.97657,0.33204 1.75782,0.89844 0.82031,0.60547 1.25,1.44531 0.44921,0.83985 0.44921,1.77735 v 4.04297 q 0,0.625 0.41016,0.625 0.15625,0 0.25391,-0.0781 0.11718,-0.0977 0.3125,-0.35156 0.48828,-0.66406 0.99609,-0.66406 0.33203,0 0.66406,0.35156 0.33203,0.35156 0.33203,0.70312 0,0.60547 -0.58593,1.48438 -0.56641,0.85937 -1.42578,1.54297 -0.80079,0.64453 -1.73829,0.91797 -0.9375,0.29297 -2.20703,0.29297 -2.57812,0 -4.02343,-1.46485 -1.44532,-1.48437 -1.44532,-4.12109 v -3.28125 q 0,-1.09375 -0.0195,-1.26953 -0.0977,-0.78125 -0.54687,-1.34766 -0.56641,-0.68359 -1.6211,-0.80078 v -2.08984 q 1.05469,-0.15625 1.50391,-0.54688 0.39062,-0.35156 0.52734,-0.80078 0.15625,-0.44922 0.15625,-1.32813 v -5.17578 q 0,-1.23047 -0.48828,-1.83593 -0.46875,-0.60547 -1.71875,-0.95704 v -2.16796 h 0.50781 q 2.16797,0 3.69141,0.15625 2.26563,0.21484 4.04297,1.48437 2.55859,1.81641 2.55859,5.17578 0,2.75391 -1.71875,4.51172 -0.72265,0.74219 -1.69922,1.21094 -0.95703,0.46875 -2.92968,1.05469 z"
           id="path23536" />
        <path
           d="m 260.63281,645.94727 h 7.8711 l 5.42968,22.94921 q 0.15625,0.60547 0.35157,1.07422 0.17578,0.3711 0.78125,0.60547 0.50781,0.21485 0.70312,0.42969 0.19531,0.21484 0.19531,0.58594 0,1.01562 -1.52343,1.01562 h -9.7461 q -0.58594,0 -0.9375,-0.27344 -0.35156,-0.29296 -0.35156,-0.76171 0,-0.39063 0.15625,-0.58594 0.15625,-0.19531 0.70312,-0.48828 0.39063,-0.19532 0.54688,-0.42969 0.15625,-0.23438 0.15625,-0.58594 0,-0.33203 -0.0586,-0.58594 l -0.625,-2.83203 h -5.44922 l 0.52734,-2.32422 h 4.375 l -3.59375,-15.8789 z m -1.34765,4.96093 0.99609,4.04297 -3.45703,12.61719 q -0.15625,0.54687 -0.15625,1.01562 0,1.23047 1.15234,1.75782 l 0.6836,0.3125 q 0.64453,0.29297 0.64453,0.97656 0,0.97656 -1.42578,0.97656 h -4.96094 q -0.72266,0 -1.15235,-0.29297 -0.41015,-0.3125 -0.41015,-0.83984 0,-0.56641 0.85937,-0.9375 0.80078,-0.35156 1.17188,-0.625 0.39062,-0.29297 0.74219,-0.78125 0.54687,-0.80078 0.89843,-2.12891 z"
           id="path23538" />
        <path
           d="m 282.58594,665.5957 q 1.67968,0 2.87109,1.3086 0.56641,0.60547 0.89844,1.48437 0.33203,0.85938 0.33203,1.73828 0,1.85547 -1.21094,3.75 -1.21094,1.91407 -3.24219,3.24219 -1.71875,1.13281 -2.69531,1.13281 -0.39062,0 -0.64453,-0.23437 -0.25391,-0.23438 -0.25391,-0.625 0,-0.58594 0.74219,-0.97656 1.77735,-0.91797 2.59766,-1.81641 0.78125,-0.83984 0.78125,-1.23047 0,-0.37109 -0.58594,-0.44922 l -0.25391,-0.0391 -0.29296,-0.0195 q -1.26954,-0.19531 -2.07032,-1.17188 -0.78125,-0.99609 -0.78125,-2.40234 0,-1.44531 0.97657,-2.5 1.11328,-1.19141 2.83203,-1.19141 z"
           id="path23540" />
        <path
           d="m 99.34375,695.94727 h 7.87109 l 5.42969,22.94921 q 0.15625,0.60547 0.35156,1.07422 0.17579,0.3711 0.78125,0.60547 0.50782,0.21485 0.70313,0.42969 0.19531,0.21484 0.19531,0.58594 0,1.01562 -1.52344,1.01562 h -9.74609 q -0.58594,0 -0.9375,-0.27344 -0.35156,-0.29296 -0.35156,-0.76171 0,-0.39063 0.15625,-0.58594 0.15625,-0.19531 0.70312,-0.48828 0.39063,-0.19532 0.54688,-0.42969 0.15625,-0.23438 0.15625,-0.58594 0,-0.33203 -0.0586,-0.58594 l -0.625,-2.83203 h -5.449215 l 0.527344,-2.32422 h 4.375001 l -3.593751,-15.8789 z m -1.347656,4.96093 0.996093,4.04297 -3.457031,12.61719 q -0.15625,0.54687 -0.15625,1.01562 0,1.23047 1.152344,1.75782 l 0.683594,0.3125 q 0.644531,0.29297 0.644531,0.97656 0,0.97656 -1.425781,0.97656 h -4.960938 q -0.722656,0 -1.152344,-0.29297 -0.410156,-0.3125 -0.410156,-0.83984 0,-0.56641 0.859375,-0.9375 0.800781,-0.35156 1.171875,-0.625 0.390625,-0.29297 0.742188,-0.78125 0.546875,-0.80078 0.898437,-2.12891 z"
           id="path23542" />
        <path
           d="m 117.9375,714.81445 v -15.3125 q 0,-0.68359 -0.23437,-0.99609 -0.11719,-0.17578 -0.23438,-0.21484 -0.0977,-0.0586 -0.74219,-0.27344 -0.78125,-0.25391 -0.78125,-1.03516 0,-0.50781 0.3711,-0.76172 0.39062,-0.27343 1.09375,-0.27343 h 0.50781 8.71094 0.50781 l 0.70312,0.0781 q 0.33203,0.0977 0.54688,0.35156 0.21484,0.25391 0.21484,0.60547 0,0.78125 -0.78125,1.03516 -0.64453,0.21484 -0.76172,0.27344 -0.0977,0.0391 -0.21484,0.21484 -0.23437,0.3125 -0.23437,0.99609 v 16.38672 q 0,1.66016 0.0781,2.32422 0.0977,0.64453 0.37109,1.17188 0.25391,0.48828 0.56641,0.70312 0.3125,0.21484 1.19141,0.48828 v 2.5586 h -0.42969 q -2.53906,0 -4.21875,-0.44922 -1.97266,-0.52735 -3.45703,-1.5625 -1.48438,-1.03516 -2.10938,-2.32422 -0.66406,-1.36719 -0.66406,-3.98438 z m 12.67578,8.32032 v -2.5586 q 1.95313,-0.2539 3.26172,-1.60156 1.48437,-1.54297 1.48437,-4.43359 v -12.73438 q 0,-2.67578 -2.05078,-3.73047 -0.60547,-0.3125 -0.80078,-0.52734 -0.17578,-0.23438 -0.17578,-0.66406 0,-0.50782 0.37109,-0.72266 0.3711,-0.21484 1.21094,-0.21484 h 4.78516 q 0.60547,0 0.80078,0.0391 0.21484,0.0195 0.41016,0.13672 0.50781,0.29297 0.50781,0.80078 0,0.42969 -0.3125,0.72265 -0.0977,0.0977 -0.83985,0.52735 -0.85937,0.46875 -1.34765,1.44531 -0.48828,0.95703 -0.48828,2.1875 v 12.75391 q 0,3.28125 -1.44532,5.39062 -1.05468,1.5625 -3.02734,2.5 -0.97656,0.46875 -2.34375,0.6836 z"
           id="path23544" />
        <path
           d="m 154.08984,695.41992 v 2.36328 q -1.15234,0.17578 -1.71875,1.01563 -0.5664,0.83984 -0.5664,2.40234 v 16.13281 0.83985 q 0,0.44922 0.17578,0.95703 0.19531,0.48828 0.48828,0.83984 0.3125,0.39063 0.66406,0.56641 0.35156,0.15625 0.95703,0.21484 v 2.38282 q -3.78906,0 -6.58203,-1.97266 -2.46094,-1.73828 -3.71094,-4.66797 -1.25,-2.94922 -1.25,-6.97266 0,-2.94921 0.80079,-5.48828 0.82031,-2.55859 2.36328,-4.43359 1.5625,-1.89453 3.73047,-3.04688 2.1875,-1.15234 4.19921,-1.15234 z m 1.54297,2.38281 v -2.36328 q 0.95703,0.15625 1.54297,0.33203 0.60547,0.17579 2.16797,0.74219 0.99609,0.35156 1.32812,0.35156 0.56641,0 0.85938,-0.50781 l 0.25391,-0.46875 q 0.23437,-0.46875 0.8789,-0.46875 0.52735,0 0.80078,0.3125 0.29297,0.3125 0.29297,0.91797 v 8.125 q 0,0.78125 -0.35156,1.13281 -0.35156,0.35157 -0.80078,0.35157 -0.46875,0 -0.76172,-0.29297 -0.27344,-0.3125 -0.44922,-0.9961 -0.41016,-1.54297 -0.80078,-2.42187 -0.83984,-1.85547 -1.91406,-3.00781 -0.72266,-0.78125 -1.44532,-1.19141 -0.72265,-0.42969 -1.60156,-0.54688 z m 0.0586,25.33204 v -2.38282 q 1.52343,-0.11718 3.20312,-1.15234 0.89844,-0.56641 1.60156,-1.50391 0.70313,-0.95703 1.05469,-2.08984 0.19531,-0.625 0.44922,-0.87891 0.27344,-0.27343 0.70312,-0.27343 0.46875,0 0.78125,0.35156 0.3125,0.35156 0.3125,0.8789 0,0.87891 -0.68359,2.12891 -0.66406,1.25 -1.71875,2.30469 -1.28906,1.28906 -2.65625,1.91406 -1.34766,0.625 -3.04687,0.70313 z"
           id="path23546" />
        <path
           d="m 177.82031,722.60742 h -8.71094 -0.50781 q -0.70312,0 -1.09375,-0.2539 -0.37109,-0.27344 -0.37109,-0.76172 0,-0.80078 0.78125,-1.05469 0.64453,-0.21484 0.74219,-0.25391 0.11718,-0.0586 0.23437,-0.23437 0.23438,-0.3125 0.23438,-0.9961 v -19.55078 q 0,-0.68359 -0.23438,-0.99609 -0.11719,-0.17578 -0.23437,-0.21484 -0.0977,-0.0586 -0.74219,-0.27344 -0.78125,-0.25391 -0.78125,-1.05469 0,-0.48828 0.37109,-0.74219 0.39063,-0.27343 1.09375,-0.27343 h 0.50781 8.71094 0.50781 q 0.70313,0 1.07422,0.27343 0.39063,0.25391 0.39063,0.74219 0,0.80078 -0.78125,1.05469 -0.64453,0.21484 -0.76172,0.27344 -0.0977,0.0391 -0.21484,0.21484 -0.23438,0.3125 -0.23438,0.99609 v 19.55078 q 0,1.09375 0.56641,1.28907 l 0.60547,0.19531 q 0.74218,0.23437 0.74218,1.05469 0,1.01562 -1.38672,1.01562 z m 7.73438,-18.92578 5.89843,15.42969 q 0.23438,0.625 0.48829,0.95703 0.2539,0.3125 0.66406,0.48828 0.41015,0.19531 0.52734,0.29297 0.27344,0.27344 0.27344,0.72266 0,1.03515 -1.46484,1.03515 h -9.82422 q -0.70313,0 -1.09375,-0.29297 -0.3711,-0.29297 -0.3711,-0.83984 0,-0.625 0.72266,-0.97656 0.44922,-0.21485 0.60547,-0.35157 0.15625,-0.15625 0.17578,-0.41015 0,-0.13672 -0.15625,-0.625 l -2.5,-7.46094 q -0.35156,-1.03516 -0.35156,-1.75781 0,-0.6836 0.5664,-1.48438 l 4.66797,-6.58203 q 0.66406,-0.91797 0.66406,-1.91406 0,-0.54688 -0.29296,-1.01563 -0.29297,-0.46875 -0.78125,-0.66406 l -0.70313,-0.29297 q -0.66406,-0.27343 -0.66406,-0.91797 0,-0.52734 0.41015,-0.85937 0.27344,-0.21484 0.89844,-0.21484 h 6.95313 q 0.68359,0 1.05468,0.3125 0.39063,0.29296 0.39063,0.83984 0,0.82031 -0.89844,1.17187 l -1.03515,0.41016 q -0.64454,0.23438 -1.64063,1.05469 -0.74219,0.625 -1.83594,2.08984 z"
           id="path23548" />
        <path
           d="m 206.74609,722.60742 h -8.6914 -0.50782 q -0.70312,0 -1.09375,-0.2539 -0.37109,-0.27344 -0.37109,-0.76172 0,-0.80078 0.78125,-1.05469 0.64453,-0.21484 0.74219,-0.25391 0.11719,-0.0586 0.23437,-0.23437 0.23438,-0.3125 0.23438,-0.9961 v -19.55078 q 0,-0.68359 -0.23438,-0.99609 -0.11718,-0.17578 -0.23437,-0.21484 -0.0977,-0.0586 -0.74219,-0.27344 -0.78125,-0.25391 -0.78125,-1.05469 0,-0.48828 0.37109,-0.74219 0.39063,-0.27343 1.09375,-0.27343 h 0.50782 8.71093 0.66407 q 0.85937,0 1.23047,0.23437 0.50781,0.3125 0.50781,0.82031 0,0.85938 -0.9375,1.07422 -0.76172,0.17578 -0.89844,0.23438 -0.13672,0.0586 -0.29297,0.23437 -0.29297,0.35156 -0.29297,1.09375 z m 1.58203,0 v -2.1875 q 0.95704,-0.17578 1.50391,-0.39062 0.56641,-0.21485 1.07422,-0.625 0.82031,-0.64453 1.50391,-1.77735 0.68359,-1.13281 1.11328,-2.51953 0.3125,-1.07422 0.5664,-1.40625 0.27344,-0.35156 0.78125,-0.35156 0.54688,0 0.80078,0.44922 0.11719,0.21484 0.11719,0.85937 v 7.94922 z"
           id="path23550" />
        <path
           d="m 225.22266,695.94727 h 7.87109 l 5.42969,22.94921 q 0.15625,0.60547 0.35156,1.07422 0.17578,0.3711 0.78125,0.60547 0.50781,0.21485 0.70312,0.42969 0.19532,0.21484 0.19532,0.58594 0,1.01562 -1.52344,1.01562 h -9.74609 q -0.58594,0 -0.9375,-0.27344 -0.35157,-0.29296 -0.35157,-0.76171 0,-0.39063 0.15625,-0.58594 0.15625,-0.19531 0.70313,-0.48828 0.39062,-0.19532 0.54687,-0.42969 0.15625,-0.23438 0.15625,-0.58594 0,-0.33203 -0.0586,-0.58594 l -0.625,-2.83203 h -5.44922 l 0.52734,-2.32422 h 4.375 l -3.59375,-15.8789 z m -1.34766,4.96093 0.99609,4.04297 -3.45703,12.61719 q -0.15625,0.54687 -0.15625,1.01562 0,1.23047 1.15235,1.75782 l 0.68359,0.3125 q 0.64453,0.29297 0.64453,0.97656 0,0.97656 -1.42578,0.97656 h -4.96094 q -0.72265,0 -1.15234,-0.29297 -0.41016,-0.3125 -0.41016,-0.83984 0,-0.56641 0.85938,-0.9375 0.80078,-0.35156 1.17187,-0.625 0.39063,-0.29297 0.74219,-0.78125 0.54687,-0.80078 0.89844,-2.12891 z"
           id="path23552" />
        <path
           d="m 253.21094,695.94727 10.39062,18.04687 v 8.61328 h -5.33203 l -13.26172,-22.85156 q -0.42969,-0.74219 -0.70312,-1.03516 -0.27344,-0.29297 -0.70313,-0.42968 l -0.74219,-0.27344 q -0.29296,-0.0977 -0.46875,-0.35156 -0.17578,-0.25391 -0.17578,-0.56641 0,-0.33203 0.17578,-0.60547 0.17579,-0.29297 0.46875,-0.41016 0.33204,-0.13671 1.79688,-0.13671 z m -8.1836,6.85546 2.07032,3.4375 v 10.46875 q 0,1.36719 0.44921,2.2461 0.46875,0.8789 1.46485,1.44531 l 0.58594,0.33203 q 0.50781,0.29297 0.50781,0.87891 0,0.44922 -0.3711,0.74219 -0.3125,0.2539 -1.28906,0.2539 h -4.51172 q -1.77734,0 -1.77734,-1.01562 0,-0.35157 0.17578,-0.54688 0.19531,-0.21484 0.82031,-0.5664 1.875,-1.03516 1.875,-3.76954 z m 18.57422,8.06641 -2.07031,-3.49609 v -5.41016 q 0,-1.64062 -0.48828,-2.5 -0.46875,-0.87891 -1.67969,-1.50391 -0.41016,-0.19531 -0.56641,-0.41015 -0.15625,-0.23438 -0.15625,-0.58594 0,-0.52734 0.33204,-0.76172 0.35156,-0.2539 1.11328,-0.2539 h 4.88281 q 0.99609,0 1.30859,0.3125 0.33203,0.3125 0.33203,0.74218 0,0.41016 -0.19531,0.625 -0.17578,0.19532 -0.8789,0.54688 -1.03516,0.52734 -1.5625,1.62109 -0.3711,0.80078 -0.3711,2.16797 z"
           id="path23554" />
        <path
           d="m 279.67578,695.94727 v 26.66015 h -8.69141 -0.50781 q -0.70312,0 -1.09375,-0.2539 -0.37109,-0.27344 -0.37109,-0.76172 0,-0.80078 0.78125,-1.05469 0.64453,-0.21484 0.74219,-0.25391 0.11718,-0.0586 0.23437,-0.23437 0.23438,-0.3125 0.23438,-0.9961 v -19.55078 q 0,-0.68359 -0.23438,-0.99609 -0.11719,-0.17578 -0.23437,-0.21484 -0.0977,-0.0586 -0.74219,-0.27344 -0.78125,-0.25391 -0.78125,-1.05469 0,-0.48828 0.37109,-0.74219 0.39063,-0.27343 1.09375,-0.27343 h 0.50781 z m 3.94531,21.07421 v -15.41015 q 0,-1.42578 -0.41015,-2.26563 -0.25391,-0.54687 -0.625,-0.80078 -0.3711,-0.2539 -1.17188,-0.42969 v -2.16796 q 1.03516,0 1.75781,0.0781 2.48047,0.27344 4.80469,2.10938 2.30469,1.77734 3.41797,4.6289 1.15234,2.89063 1.15234,6.40625 0,3.98438 -1.46484,7.08985 -1.46484,3.08593 -4.19922,4.86328 -1.32812,0.85937 -2.48047,1.17187 -1.13281,0.3125 -2.98828,0.3125 v -2.10937 q 0.82031,-0.21485 1.13281,-0.39063 0.33204,-0.17578 0.56641,-0.54687 0.29297,-0.42969 0.39063,-0.95703 0.11718,-0.54688 0.11718,-1.58204 z"
           id="path23556" />
        <path
           d="m 105.18359,745.94727 v 22.94921 q 0,0.76172 0.29297,1.09375 0.15625,0.19532 0.29297,0.25391 0.13672,0.0391 0.89844,0.23438 0.9375,0.21484 0.9375,1.07421 0,0.50782 -0.50781,0.82032 -0.3711,0.23437 -1.23047,0.23437 h -0.66406 -7.500005 -0.644531 q -0.878907,0 -1.230469,-0.23437 -0.507813,-0.3125 -0.507813,-0.82032 0,-0.85937 0.9375,-1.07421 0.761719,-0.19532 0.898438,-0.23438 0.136719,-0.0586 0.273437,-0.25391 0.292969,-0.33203 0.292969,-1.09375 v -18.28125 q 0,-1.01562 -0.214844,-1.48437 -0.195312,-0.46875 -0.644531,-0.52734 l -0.683594,-0.0977 q -0.917968,-0.13672 -0.917968,-0.9375 0,-0.625 0.585937,-0.97656 0.292969,-0.15625 1.210938,-0.21485 z"
           id="path23558" />
        <path
           d="m 123.64063,772.93945 q -2.05079,-0.2539 -3.65235,-1.15234 -1.58203,-0.91797 -2.94922,-2.63672 -1.5039,-1.875 -2.28515,-4.39453 -0.78125,-2.51953 -0.78125,-5.48828 0,-2.94922 0.78125,-5.46875 0.78125,-2.51953 2.28515,-4.39453 1.36719,-1.71875 2.94922,-2.61719 1.60156,-0.91797 3.65235,-1.17188 v 2.03125 q -0.54688,0.17579 -0.76172,0.3125 -0.21485,0.11719 -0.41016,0.3711 -0.56641,0.72265 -0.56641,2.08984 v 17.71485 q 0,1.36718 0.56641,2.08984 0.19531,0.25391 0.41016,0.39062 0.21484,0.11719 0.76172,0.29297 z m 1.5039,0 v -2.03125 q 0.54688,-0.17578 0.76172,-0.29297 0.21484,-0.13671 0.41016,-0.39062 0.5664,-0.72266 0.5664,-2.08984 v -17.71485 q 0,-1.36719 -0.5664,-2.08984 -0.19532,-0.25391 -0.41016,-0.3711 -0.21484,-0.13671 -0.76172,-0.3125 v -2.03125 q 2.05078,0.25391 3.63281,1.17188 1.60157,0.89844 2.96875,2.61719 1.50391,1.875 2.28516,4.39453 0.78125,2.51953 0.78125,5.46875 0,2.96875 -0.78125,5.48828 -0.78125,2.51953 -2.28516,4.39453 -1.36718,1.71875 -2.96875,2.63672 -1.58203,0.89844 -3.63281,1.15234 z"
           id="path23560" />
        <path
           d="m 139.83203,752.08008 0.54688,-6.46485 q 0.64453,0.0781 0.76171,0.0977 l 3.94532,0.52734 q 2.08984,0.29297 5,0.29297 1.95312,0 3.16406,-0.19531 1.21094,-0.19531 2.53906,-0.72266 -0.41015,1.34766 -0.89844,2.20704 -0.48828,0.85937 -1.36718,1.73828 -0.9375,0.9375 -2.08985,1.60156 -1.13281,0.66406 -2.26562,0.91797 -1.71875,0.39062 -4.45313,0.39062 -2.48047,0 -4.88281,-0.39062 z m -0.13672,1.48437 1.79688,0.19532 -0.33203,4.0625 q 1.15234,-0.95704 2.05078,-1.44532 0.89843,-0.48828 1.99218,-0.76172 v 2.75391 q -2.08984,0.48828 -3.51562,1.34766 -0.9375,0.58593 -1.36719,0.58593 -0.52734,0 -0.83984,-0.27343 -0.29297,-0.29297 -0.29297,-0.78125 0,-0.23438 0.0195,-0.54688 z m 7.14844,4.80469 v -2.83203 q 2.01172,0 3.37891,0.3125 1.36718,0.3125 2.61718,1.05469 3.92578,2.30468 3.92578,7.14843 0,2.32422 -0.89843,4.17969 -0.89844,1.85547 -2.5586,3.00781 -1.17187,0.78125 -2.71484,1.25 -1.54297,0.44922 -3.08594,0.44922 h -0.60547 v -2.20703 q 0.60547,-0.19531 0.95703,-0.48828 0.3711,-0.3125 0.60547,-0.85937 0.15625,-0.3125 0.25391,-1.01563 0.11719,-0.70312 0.11719,-1.34766 v -5 q 0,-1.71875 -0.41016,-2.46093 -0.41016,-0.76172 -1.58203,-1.19141 z m -1.64063,12.36328 v 2.14844 q -2.05078,-0.13672 -3.80859,-1.05469 -1.66016,-0.85937 -2.55859,-2.08984 -0.87891,-1.25 -0.87891,-2.71485 0,-1.69921 1.07422,-2.83203 1.09375,-1.13281 2.73437,-1.13281 1.40625,0 2.42188,1.01563 1.03516,1.01562 1.03516,2.40234 0,0.78125 -0.39063,1.60156 -0.39062,0.80078 -0.95703,1.23047 -0.44922,0.33203 -0.44922,0.54688 0,0.3125 0.46875,0.54687 0.46875,0.23438 1.30859,0.33203 z"
           id="path23562" />
        <path
           d="m 169.61719,772.93945 q -2.05078,-0.2539 -3.65235,-1.15234 -1.58203,-0.91797 -2.94922,-2.63672 -1.5039,-1.875 -2.28515,-4.39453 -0.78125,-2.51953 -0.78125,-5.48828 0,-2.94922 0.78125,-5.46875 0.78125,-2.51953 2.28515,-4.39453 1.36719,-1.71875 2.94922,-2.61719 1.60157,-0.91797 3.65235,-1.17188 v 2.03125 q -0.54688,0.17579 -0.76172,0.3125 -0.21485,0.11719 -0.41016,0.3711 -0.5664,0.72265 -0.5664,2.08984 v 17.71485 q 0,1.36718 0.5664,2.08984 0.19531,0.25391 0.41016,0.39062 0.21484,0.11719 0.76172,0.29297 z m 1.5039,0 v -2.03125 q 0.54688,-0.17578 0.76172,-0.29297 0.21485,-0.13671 0.41016,-0.39062 0.5664,-0.72266 0.5664,-2.08984 v -17.71485 q 0,-1.36719 -0.5664,-2.08984 -0.19531,-0.25391 -0.41016,-0.3711 -0.21484,-0.13671 -0.76172,-0.3125 v -2.03125 q 2.05078,0.25391 3.63282,1.17188 1.60156,0.89844 2.96875,2.61719 1.5039,1.875 2.28515,4.39453 0.78125,2.51953 0.78125,5.46875 0,2.96875 -0.78125,5.48828 -0.78125,2.51953 -2.28515,4.39453 -1.36719,1.71875 -2.96875,2.63672 -1.58204,0.89844 -3.63282,1.15234 z"
           id="path23564" />
      </g>
    </g>
    <path
       style="fill:#000000;stroke-width:0.0889256"
       d="m -23.126687,123.02297 c -0.136707,-0.34134 0.01826,-1.28411 0.290856,-1.76936 0.307911,-0.54816 0.908399,-1.0483 1.258644,-1.0483 0.252352,0 0.848654,-0.48846 0.763839,-0.6257 -0.02464,-0.0399 -0.17438,-0.0316 -0.332669,0.0182 -0.15829,0.05 -0.667967,0.10599 -1.132609,0.12454 -0.464627,0.0185 -1.264967,0.0724 -1.778503,0.12008 -1.074704,0.0994 -1.507982,0.0239 -1.750167,-0.30513 -0.148819,-0.20221 -0.200459,-0.21513 -0.646295,-0.16159 -0.399034,0.048 -0.552069,0.12038 -0.867031,0.41072 l -0.382469,0.35254 v -0.3602 c 0,-0.9617 1.659949,-1.72857 3.142891,-1.45193 0.58756,0.10954 1.307063,0.0338 2.524961,-0.26603 0.875462,-0.21551 1.465649,-0.46301 2.256519,-0.94628 0.312423,-0.1909 0.931629,-0.53464 1.37601,-0.76387 0.76804,-0.39618 2.154827,-1.43107 3.091072,-2.30673 0.460783,-0.43096 0.4829,-0.57383 0.156435,-1.01008 -0.193009,-0.2579 -0.692236,-0.59326 -0.791657,-0.5318 -0.04423,0.0273 -0.214219,-0.049 -0.377749,-0.16966 -0.163529,-0.12068 -0.408682,-0.21936 -0.544781,-0.21936 -0.165815,0 -0.295502,-0.0733 -0.393112,-0.22232 -0.154742,-0.23618 -0.354727,-0.30737 -0.274231,-0.0977 0.02627,0.0686 0.02375,0.14874 -0.0059,0.17815 -0.06887,0.0689 -0.477883,-0.19599 -0.628855,-0.40741 -0.161585,-0.22632 -0.614916,-0.45149 -0.683967,-0.33975 -0.102271,0.16552 -0.219385,0.0894 -0.352456,-0.22903 -0.126614,-0.30297 -0.314294,-0.34912 -0.314294,-0.0773 0,0.2318 -0.204007,0.13448 -0.592547,-0.28279 -0.279812,-0.30046 -0.430591,-0.39838 -0.560946,-0.3643 -0.161867,0.0423 -0.620957,-0.22127 -0.699122,-0.40141 -0.01633,-0.0376 -0.152546,-0.0683 -0.302776,-0.0683 -0.202834,0 -0.359951,-0.0913 -0.610478,-0.35462 -0.185542,-0.19505 -0.360233,-0.31761 -0.388198,-0.27237 -0.02791,0.0453 -0.382944,-0.24537 -0.788836,-0.64582 -0.405892,-0.40044 -0.798811,-0.71637 -0.873132,-0.70206 -0.136262,0.0263 -1.319828,-1.15484 -1.319828,-1.31703 0,-0.048 -0.04008,-0.0873 -0.08891,-0.0873 -0.04883,0 -0.08891,0.0558 -0.08891,0.12379 0,0.26478 -0.250779,0.19667 -0.65201,-0.17702 -0.230488,-0.21467 -0.457191,-0.4906 -0.503799,-0.61321 -0.04661,-0.12261 -0.141012,-0.22289 -0.209885,-0.22289 -0.06887,0 -0.29519,-0.26099 -0.503012,-0.57997 -0.451061,-0.69233 -0.916489,-1.12832 -0.961198,-0.90045 -0.07808,0.39769 -0.530131,-0.0797 -0.94337,-0.99606 -0.09158,-0.20303 -0.216268,-0.36914 -0.277141,-0.36914 -0.156612,0 -0.649323,-0.5829 -0.715465,-0.84643 -0.03043,-0.12142 -0.1137,-0.22069 -0.184874,-0.22069 -0.07585,0 -0.274216,-0.31324 -0.478714,-0.75587 -0.200341,-0.43365 -0.403442,-0.75585 -0.476442,-0.75585 -0.07006,0 -0.175196,-0.150067 -0.233798,-0.333477 -0.144277,-0.451323 -0.25587,-0.557557 -0.321641,-0.306066 -0.119192,0.455796 -0.400934,0.02701 -0.597089,-0.908755 -0.141903,-0.676606 -0.179902,-0.74107 -0.352901,-0.597505 -0.09411,0.07822 -0.145168,0.07585 -0.213359,-0.0089 -0.220483,-0.276206 -0.378609,-0.710018 -0.378609,-1.038769 0,-0.26583 -0.03117,-0.345361 -0.121716,-0.310627 -0.142051,0.05447 -0.231007,-0.20993 -0.232789,-0.691731 -6.97e-4,-0.180525 -0.04126,-0.35296 -0.0901,-0.383196 -0.04883,-0.03028 -0.08891,-0.252679 -0.08891,-0.494329 0,-0.331275 -0.0328,-0.439379 -0.133442,-0.439379 -0.07333,0 -0.133442,-0.05997 -0.133442,-0.133442 0,-0.07333 -0.06101,-0.133442 -0.135668,-0.133442 -0.250215,0 -0.489326,-1.039332 -0.493883,-2.146737 -0.003,-0.833574 -0.0478,-0.988494 -0.263173,-0.920125 -0.131513,0.04171 -0.18486,-0.0089 -0.251581,-0.240834 -0.04661,-0.161585 -0.08832,-0.223764 -0.09277,-0.138192 -0.0045,0.08565 -0.04334,0.155618 -0.08654,0.155618 -0.09693,0 -0.184934,-0.311503 -0.188363,-0.666942 -0.0014,-0.146801 -0.04275,-0.326792 -0.09188,-0.400163 -0.07808,-0.116669 -0.104052,-0.114145 -0.207511,0.02078 -0.175983,0.229523 -0.234065,0.100638 -0.234065,-0.519518 0,-0.620883 -0.09841,-0.755097 -0.374453,-0.510463 -0.185305,0.164241 -0.185379,0.164123 -0.126763,-0.213596 0.03562,-0.229152 0.02405,-0.377942 -0.02924,-0.377942 -0.139083,0 -0.03221,-1.252861 0.216327,-2.534378 0.264286,-1.363037 0.283137,-1.734047 0.08817,-1.734047 -0.0754,0 -0.255692,-0.08772 -0.400771,-0.195027 -0.18103,-0.133887 -0.292533,-0.16629 -0.35541,-0.103458 -0.05047,0.05032 -0.116224,0.439601 -0.146207,0.864908 -0.03503,0.496956 -0.08951,0.763454 -0.152308,0.74576 -0.189342,-0.05329 -1.476737,-2.757259 -1.57742,-3.313055 -0.113403,-0.625737 -0.04987,-1.685405 0.138192,-2.304908 0.103755,-0.341902 0.112513,-0.5316 0.04023,-0.868456 -0.08579,-0.399925 -0.07362,-0.464567 0.169303,-0.89642 0.143981,-0.255989 0.290856,-0.661644 0.326421,-0.901453 0.261584,-1.763793 1.367668,-3.250817 2.71745,-3.653354 0.122309,-0.03651 0.346666,-0.159388 0.498663,-0.273178 0.181103,-0.13552 0.306485,-0.176725 0.363796,-0.119489 0.05729,0.0573 0.345167,-0.03844 0.835206,-0.277719 0.599064,-0.292533 0.815955,-0.356597 1.090528,-0.322101 0.188511,0.02375 0.50368,-0.01336 0.700355,-0.08312 0.495887,-0.174959 0.660188,-0.170016 0.506426,0.01529 -0.103162,0.124387 -0.08565,0.138785 0.144723,0.119934 0.411769,-0.03369 0.588509,-0.003 0.528883,0.09426 -0.03355,0.05433 0.100935,0.08891 0.344663,0.08891 0.509737,0 0.950184,0.15351 0.766378,0.267107 -0.168145,0.103903 -0.04572,0.144129 0.66292,0.21741 0.586536,0.06071 0.684903,0.10717 0.491063,0.231735 -0.107169,0.06887 -0.09455,0.09396 0.06932,0.138934 0.109989,0.03013 0.200074,0.0901 0.200074,0.133442 0,0.04319 0.122754,0.07852 0.272776,0.07852 0.229776,0 0.264108,0.02731 0.217842,0.173044 -0.04913,0.154579 -0.0045,0.175939 0.416401,0.200074 0.366542,0.02108 0.466438,0.05759 0.449308,0.164776 -0.01722,0.107763 0.04557,0.12988 0.288763,0.101529 0.405952,-0.04735 0.755914,0.04408 0.755914,0.19761 0,0.06724 0.07006,0.149339 0.155618,0.182514 0.147097,0.057 0.146801,0.06679 -0.0059,0.178833 -0.164939,0.121419 -0.05744,0.287546 0.116521,0.180035 0.04883,-0.03028 0.08891,-0.01188 0.08891,0.03919 0,0.0518 0.130027,0.09485 0.289,0.09559 0.371737,0.0015 0.466379,0.07585 0.480792,0.376576 0.01039,0.201944 -0.02538,0.244545 -0.201187,0.244545 -0.382841,0 -0.224195,0.136707 0.365102,0.314605 0.3179,0.09589 0.578001,0.220587 0.578016,0.276948 0,0.0564 0.120082,0.144277 0.266779,0.195457 0.146653,0.05121 0.26678,0.13552 0.26678,0.187665 0,0.0521 0.213923,0.189282 0.475374,0.304897 0.261451,0.11563 0.498351,0.270135 0.52645,0.343357 0.02805,0.07318 0.192934,0.15973 0.366305,0.192252 0.426568,0.08 0.498084,0.230101 0.109692,0.230101 -0.476784,0 -0.461569,0.146653 0.03221,0.310672 0.506664,0.168279 0.653138,0.311815 0.318227,0.311815 -0.247617,0 -0.308742,0.152278 -0.09426,0.234614 0.07333,0.0282 0.13359,0.09693 0.133887,0.152828 2.67e-4,0.05596 0.121419,0.170431 0.269155,0.254504 0.215199,0.122458 0.258126,0.194611 0.215882,0.362905 -0.04216,0.167671 0.01187,0.258854 0.26439,0.451922 0.361955,0.276057 0.396229,0.386091 0.132997,0.426702 -0.346623,0.05344 0.244114,0.545123 2.674077,2.225467 1.089518,0.753419 1.565827,1.178949 2.295913,2.051205 l 0.594165,0.709854 2.356534,0.479337 c 3.5860546,0.729448 5.3437174,1.243504 6.1803343,1.807507 1.3770045,0.928296 2.2913264,1.59552 2.7122399,1.979236 0.2689915,0.245227 1.1493518,0.82446 1.9563561,1.287187 0.8070048,0.462727 1.7512361,1.054429 2.0982889,1.314885 0.3470529,0.260457 0.8872773,0.602107 1.2004873,0.759209 0.3132247,0.157102 0.9296402,0.532907 1.3698203,0.835118 0.4401802,0.302211 1.0703109,0.699464 1.4002939,0.882779 0.5938238,0.329894 2.0582408,1.419546 2.6313878,1.957989 0.41275,0.387754 0.636053,0.862623 0.641709,1.364625 0.0045,0.415348 0.01751,0.435015 0.517395,0.791167 0.551164,0.392696 0.842065,0.853683 0.795085,1.25993 -0.01855,0.15983 -0.08758,0.25023 -0.205699,0.26895 -0.407673,0.0646 -0.418227,0.11132 -0.07719,0.34173 0.635,0.42917 1.722366,1.39212 1.722366,1.52531 0,0.23277 -0.760782,0.0649 -2.047807,-0.45206 -0.661658,-0.26574 -1.435725,-0.5971 -1.720153,-0.73637 -0.477244,-0.23368 -0.523793,-0.24134 -0.603324,-0.0992 -0.07644,0.13656 -0.14116,0.10702 -0.5718554,-0.26093 -0.2671065,-0.2282 -0.5048973,-0.39567 -0.5284092,-0.37215 -0.023601,0.0234 0.1575327,0.27163 0.4023296,0.55137 0.2447968,0.27975 0.4450784,0.58493 0.4450784,0.67818 0,0.21042 -0.3076882,0.38499 -0.5648051,0.32045 -0.3902618,-0.098 -0.4376864,0.0822 -0.084013,0.31896 0.1856312,0.12423 0.7176621,0.55689 1.1823037,0.96158 0.464642,0.40469 1.115687,0.9522 1.446783,1.21668 0.343802,0.27465 0.667982,0.62013 0.755854,0.80555 0.134333,0.2833 0.306828,0.40298 1.354384,0.93944 4.0047405,2.05083 5.0484665,2.67035 6.6591205,3.95261 1.416948,1.12803 2.218713,1.94345 2.325748,2.36532 0.130325,0.51368 0.231809,0.69249 0.72216,1.27243 0.236782,0.28002 0.430502,0.54481 0.430502,0.58841 0,0.096 -0.76951,0.0206 -2.089753,-0.20499 -0.537998,-0.0919 -1.518403,-0.23326 -2.17868,-0.31409 -0.660278,-0.0809 -1.365724,-0.18681 -1.567668,-0.23552 -0.292117,-0.0704 -0.423659,-0.0594 -0.64349,0.0543 -0.228157,0.11801 -0.447052,0.13255 -1.255719,0.0834 -0.566037,-0.0344 -0.977956,-0.0257 -0.975967,0.0206 0.0015,0.0441 0.451328,0.38019 0.998737,0.74701 1.370592,0.91842 7.218345,5.31108 7.725469,5.80315 0.772701,0.74975 0.677347,1.04413 -0.338191,1.04413 -0.465978,0 -0.725604,0.0435 -0.885808,0.14849 -0.213819,0.14012 -0.26016,0.1379 -0.819443,-0.039 -0.326035,-0.10316 -0.972953,-0.25492 -1.437595,-0.33722 -0.464628,-0.0824 -0.978461,-0.20426 -1.141842,-0.271 -0.16338,-0.0668 -0.545612,-0.11756 -0.849411,-0.11311 -0.511889,0.007 -0.639987,-0.0356 -1.748238,-0.59131 -0.657739,-0.32979 -2.0562365,-1.00978 -3.1077855,-1.51109 -1.051549,-0.5013 -2.472133,-1.1811 -3.156858,-1.51067 -0.6847241,-0.32956 -1.6051021,-0.75751 -2.0452823,-0.951 -0.4401801,-0.19348 -1.0004134,-0.46525 -1.2449579,-0.60393 -0.2445594,-0.13863 -0.9648487,-0.43972 -1.6006645,-0.66899 -0.6358157,-0.22927 -1.2070035,-0.45841 -1.2692862,-0.5092 -0.062342,-0.0508 -0.2925183,-0.0999 -0.5116065,-0.10895 -0.280317,-0.0119 -0.4644935,-0.0787 -0.6215661,-0.22629 -0.1665574,-0.15648 -0.2488342,-0.18407 -0.3241792,-0.1088 -0.075404,0.0754 -0.1618674,0.0695 -0.3409081,-0.023 -0.1319576,-0.0683 -0.3214035,-0.10271 -0.4210025,-0.0767 -0.099599,0.0261 -0.3101522,-0.0194 -0.4679075,-0.10093 -0.3426444,-0.17719 -1.3805077,-0.27536 -1.4650407,-0.13864 -0.031913,0.0515 -0.2476467,0.0938 -0.4795299,0.0938 -0.2318682,0 -0.4653099,0.0436 -0.5187461,0.0972 -0.070209,0.0702 -0.1473946,0.0702 -0.2787288,0 -0.2653549,-0.14206 -0.3076585,-0.12202 -0.2607683,0.1232 0.030874,0.16115 -0.00297,0.23474 -0.1266139,0.27393 -0.097224,0.0309 -0.1918209,0.16864 -0.2230959,0.32504 -0.031319,0.15681 -0.1224578,0.28931 -0.2157187,0.3137 -0.088763,0.0232 -0.187353,0.12795 -0.2190436,0.23268 -0.082084,0.27134 -0.3963031,0.59065 -0.5812218,0.59065 -0.086537,0 -0.2269551,-0.11785 -0.3120522,-0.26194 -0.1645981,-0.27862 -0.2999548,-0.28081 -0.2999548,-0.004 0,0.24512 -0.1648059,0.30614 -0.3570127,0.13225 -0.1589725,-0.14383 -0.1846515,-0.14175 -0.4797229,0.0407 -0.3440693,0.21263 -1.3088734,1.22013 -1.8434134,1.92495 -0.364137,0.48015 -0.420379,0.61854 -0.220142,0.54171 0.06769,-0.026 0.209247,0.0134 0.314442,0.0867 0.149844,0.10495 0.331408,0.12083 0.8384875,0.0733 l 0.6472155,-0.0607 0.3794856,0.3646 c 0.3215816,0.30898 0.4365583,0.36461 0.7537018,0.36461 0.2058181,0 0.6127194,0.0619 0.9042284,0.1376 1.2131337,0.31492 2.0411266,0.89382 2.4105335,1.68541 0.3764131,0.8066 0.2065158,1.23513 -0.1962738,0.49507 -0.154193,-0.28333 -0.3443662,-0.4908 -0.5310513,-0.57939 -0.3838495,-0.18214 -0.533441,-0.1742 -0.8286014,0.0441 -0.2808811,0.20766 -0.4929038,0.18005 -1.8808034,-0.24496 -0.6349994,-0.19445 -0.9407134,-0.23328 -1.9119004,-0.24282 -0.635816,-0.006 -1.35612,-0.0435 -1.600664,-0.0827 -0.401142,-0.0643 -0.533634,-0.0358 -1.354725,0.29194 -1.840919,0.73478 -3.429472,1.07917 -5.148439,1.11615 -0.794728,0.0171 -1.066347,0.0582 -1.378355,0.2089 -0.472301,0.22803 -1.418418,0.28456 -1.819322,0.10865 -0.258349,-0.11325 -0.299999,-0.10316 -0.699108,0.17148 -0.307228,0.21138 -0.480688,0.41781 -0.628335,0.74775 -0.162757,0.36373 -0.21698,0.42316 -0.268546,0.29438 z m 5.515559,-4.10786 c 0.449383,-0.18471 0.629715,-0.21166 1.156031,-0.1728 l 0.623585,0.046 -0.400162,-0.17463 c -0.711369,-0.31042 -1.058154,-0.32031 -1.743072,-0.0497 -0.771009,0.30466 -0.914515,0.40821 -0.688777,0.49703 0.281623,0.11088 0.502107,0.0803 1.052395,-0.14591 z m 3.594471,-1.19538 c 0.08698,-0.0465 0.332313,-0.31662 0.545301,-0.60023 0.212987,-0.28363 0.814129,-0.95586 1.335858,-1.49385 1.190528,-1.22763 1.205846,-1.25552 0.920482,-1.67547 -0.121567,-0.17895 -0.283078,-0.32536 -0.358868,-0.32536 -0.0757,0 -0.264405,0.14996 -0.419177,0.33326 -0.633515,0.75023 -1.006885,1.03936 -1.834655,1.42073 -1.132772,0.5219 -1.125632,0.51709 -1.762799,1.19022 -0.44781,0.47307 -0.532862,0.60711 -0.436143,0.68738 0.09945,0.0825 1.535681,0.5195 1.779424,0.5414 0.03993,0.003 0.143684,-0.0316 0.230577,-0.0781 z"
       id="path9624" />
  </g>
</svg>
